<svg width="390" height="396" viewBox="0 0 390 396" fill="none" xmlns="http://www.w3.org/2000/svg">
<path fill-rule="evenodd" clip-rule="evenodd" d="M193.484 0.112872C252.982 -2.31172 302.221 42.2366 337.326 90.3349C370.344 135.573 383.133 190.935 372.956 246.008C362.155 304.457 337.061 366.42 282.117 389.093C229.315 410.883 174.621 375.726 124.354 348.596C78.2273 323.701 28.624 296.43 16.1153 245.528C3.42146 193.873 32.4707 144.6 63.6284 101.488C97.4703 54.6632 135.758 2.46529 193.484 0.112872Z" fill="#D5F0FB"/>
<path d="M186.817 120.512C186.817 121.653 188.227 124.051 185.784 124.051C183.341 124.051 177.97 121.653 177.97 120.512C177.97 119.372 179.95 118.448 182.393 118.448C184.836 118.448 186.817 119.372 186.817 120.512Z" fill="#1B1823"/>
<path d="M233.73 55.7678C232.421 60.7836 232.931 61.7876 233.73 64.927L235.91 70.1607L236.346 63.5095C244.704 58.6943 249.778 56.5118 255.537 48.2443C254.712 46.6228 253.74 46.0976 251.394 45.6274C248.278 45.5194 246.923 45.9076 243.434 46.6087C240.272 47.9172 239.826 48.2444 238.309 49.6618C235.661 52.6751 235.038 53.369 233.73 55.7678Z" fill="#AC9083"/>
<path d="M239.399 74.6309H256.191C255.074 81.7346 254.668 85.6979 256.191 92.5648C250.139 94.8081 245.461 94.8354 239.399 92.5648C240.937 86.6091 241.228 82.8819 239.399 74.6309Z" fill="#9E6547"/>
<path d="M237.218 62.9318C242.856 57.3898 246.551 55.0369 254.682 53.0419C255.799 53.6365 256.891 53.9334 259.375 54.4219C260.05 58.2417 260.509 60.4017 260.575 64.0818C261.349 65.7136 261.739 66.7334 261.776 68.3367C262.245 72.9886 260.691 75.0571 258.938 78.4566C256.15 82.1135 254.651 84.0368 253.263 84.8965C251.296 85.6332 250.138 85.8551 247.696 84.8965C242.359 82.5716 240.558 80.309 238.637 75.2366C237.59 70.4828 237.428 67.7732 237.218 62.9318Z" fill="#BA7B59"/>
<path d="M255.536 94.4757H242.997H241.47L249.866 110.286L255.536 94.4757Z" fill="#E09DFE"/>
<path d="M240.598 84.6624C239.571 85.1464 239.025 85.5188 238.418 86.407V88.8058L240.598 88.4787V84.6624Z" fill="#EDC5FF"/>
<path d="M258.06 87.2961C257.212 86.1322 256.74 85.1783 255.209 84.6624C255.152 85.0027 255.16 85.554 255.209 85.9708C255.544 88.8372 255.12 89.2189 256.954 90.3323L258.06 87.2961Z" fill="#EDC5FF"/>
<path d="M239.617 68.8519C239.617 71.3209 238.543 73.3224 237.218 73.3224C235.893 73.3224 233.293 70.4486 233.293 67.9796C233.293 65.5106 234.367 63.5091 235.692 63.5091C237.016 63.5091 239.617 66.3829 239.617 68.8519Z" fill="#BA7B59"/>
<path d="M282.141 107.124C281.017 102.988 279.646 100.925 276.362 97.5291L272.982 123.589C273.672 129.683 274.823 132.388 278.107 136.019L282.141 134.929L285.085 133.947L288.138 136.019C288.901 134.848 289.186 134.09 288.792 132.094L283.341 111.813L282.141 107.124Z" fill="#EFEFEF"/>
<path d="M224.352 107.124L232.093 93.7127L260.879 91.2048C267.101 92.8475 270.461 94.222 276.253 97.3109L272.655 124.57L274.181 155.646C279.87 181.093 280.209 194.878 280.615 219.432C272.415 225 252.483 227.501 252.592 224.339C252.701 221.177 231.25 225.92 220.208 219.432C223.21 195.638 224.833 182.282 228.713 158.699C223.343 138.961 222.872 127.616 224.352 107.124Z" fill="#F9F9F9"/>
<path d="M228.986 140.38L243.106 139.726L249.212 138.09L252.374 138.854L259.68 140.38L262.297 141.143C262.727 141.293 262.798 141.563 262.951 142.016C262.869 143.155 262.427 143.517 261.097 143.76H262.297C264.18 144.159 262.969 145.355 261.097 145.614L253.465 146.159H259.68C260.372 146.9 260.294 147.144 259.68 147.686C258.215 148.842 258.06 148.795 257.063 148.885L252.374 148.449L256.3 149.321C256.683 150.02 256.56 150.23 255.755 150.303H251.938L249.212 150.957L246.05 150.303L240.817 148.885H225.987L218.682 144.415L228.986 140.38Z" fill="#BA7B59"/>
<path d="M277.915 151.945C279.247 152.14 280.012 152.161 281.603 151.066C285.031 144.133 285.497 141.204 282.799 138.434C281.274 136.971 280.453 136.606 279.011 136.347L277.117 146.782L273.43 141.07C272.229 143.987 272.275 145.622 273.43 148.54C274.768 150.963 275.909 151.286 277.915 151.945Z" fill="#D9D9D9"/>
<path d="M271.292 145.178L308.31 106.034L299.561 107.629L292.157 108.978L284.978 110.286L249.866 152.048L271.292 145.178Z" fill="#C2EEFF"/>
<path d="M254.664 54.5686C249.042 60.108 245.359 62.435 237.218 64.2729C238.711 67.8143 238.645 69.8197 238.529 73.3533L238.527 73.432C236.068 70.57 235.037 65.9084 235.037 64.2729C235.038 62.6373 235.037 62.2792 235.037 61.0018L252.701 50.9704L254.664 54.5686L252.483 50.5342L255.536 48.3535C257.76 48.5672 257.977 49.1497 258.807 49.989C260.054 51.7546 260.657 52.7516 261.206 54.5686C263.501 60.6067 263.008 63.5694 261.206 68.6344C260.055 64.2485 259.308 62.2909 259.789 56.8584C257.436 57.3017 256.412 56.1369 254.664 54.5686Z" fill="#AC9083"/>
<path d="M233.075 233.607L232.094 220.85H248.34V230.554C247.93 236.159 247.31 236.405 246.487 238.95L248.34 286.054L249.321 290.633H241.144C235.244 275.999 233.689 267.305 232.094 250.508C231.846 246.55 231.832 244.327 232.094 240.367L233.075 233.607Z" fill="#BA7B59"/>
<path d="M251.72 232.954C251.897 228.186 252.227 225.512 253.683 220.741H268.948L267.749 241.786C268.652 245.253 268.734 247.138 268.948 250.509C268.113 266.443 265.065 274.753 261.533 289.762H252.702L253.465 283.983C251.76 267.13 252.999 257.241 253.683 240.368C252.286 237.628 251.82 236.016 251.72 232.954Z" fill="#BA7B59"/>
<path d="M249.041 290.306H241.013C238.936 298.201 237.882 302.592 237 310.097C240.885 312.203 242.29 313.812 245.594 316.148C250.61 315.276 251.104 308.997 251.104 308.447C251.104 307.898 251.218 299.443 251.104 293.935C250.894 292.267 250.469 291.46 249.041 290.306Z" fill="#BA7B59"/>
<path d="M261.533 289.215L252.592 289.87C250.622 298.009 251.793 302.631 254.01 311.062C255.489 314.879 257.947 317.347 259.631 317.565C261.315 317.783 264.29 313.388 266.222 308.842C265.166 301.142 263.34 296.56 261.533 289.215Z" fill="#BA7B59"/>
<path d="M246.843 91.9683L239.094 87.4978L238.308 88.5882L244.148 100.364L247.629 94.3671H250.212L253.806 99.0557L257.063 89.7876L256.389 87.4978L251.448 91.9683H246.843Z" fill="#EDC5FF"/>
<g filter="url(#filter0_f_1_388)">
<path d="M261.744 105.675C255.414 107.66 252.532 109.519 248.558 114.102L258.137 87.9333C260.108 90.4635 261.193 91.8971 262.758 94.4755L265.35 102.903L259.94 101.572L261.744 105.675Z" fill="#DEDEDE"/>
</g>
<path d="M222.062 97.9643C225.66 94.148 228.604 91.5311 234.056 93.7119L225.551 107.778L228.604 125.115L224.352 137.218L235.583 140.053C231.631 141.35 230.178 142.956 228.277 147.358C228.115 151.849 228.676 153.814 230.458 157.499L210.613 147.249C208.006 144.442 207.359 142.495 209.087 137.218C213.135 121.919 213.713 113.392 222.062 97.9643Z" fill="#EFEFEF"/>
<g filter="url(#filter1_f_1_388)">
<path d="M249.649 111.612L238.265 91.665C238.257 90.9864 238.252 90.6073 238.265 89.8963C235.258 92.1593 233.87 93.5341 231.977 96.0868L230.676 103.751L236.856 103.063L236.097 107.682L248.131 114.757L249.649 111.612Z" fill="#DEDEDE"/>
</g>
<path d="M249.866 110.504L238.418 88.3696C238.409 87.6166 238.405 87.1958 238.418 86.4069C235.393 88.918 233.997 90.4436 232.093 93.2763L230.785 101.781L237 101.018L236.237 106.143L248.34 113.993L249.866 110.504Z" fill="#F9F9F9"/>
<path d="M261.525 104.803C255.196 106.789 252.313 108.648 248.34 113.231L257.919 87.0616C259.89 89.5919 260.975 91.0255 262.54 93.6039L265.132 102.031L259.722 100.701L261.525 104.803Z" fill="#F9F9F9"/>
<path d="M250.608 304.372H240.032L241.035 290.306C240.44 290.23 240.447 291.616 240.032 292.814C240.032 292.814 236.434 310.041 237.415 310.587C238.396 311.132 241.78 314.087 245.375 315.929C248.97 317.772 248.851 317.919 251.154 310.041C251.204 307.26 251.565 304.988 250.608 304.372Z" fill="#292929"/>
<path d="M264.15 305.462C260.899 306.139 257.063 306.225 254.664 305.462C252.266 304.699 252.622 304.739 252.156 303.39L253.356 310.151C254.647 314.75 256.587 317.539 260.225 318.11C263.411 317.481 265.482 315.334 266.331 309.169C266.672 306.759 265.831 303.169 265.241 302.3C264.65 301.431 264.804 305.107 264.15 305.462Z" fill="#292929"/>
<path d="M274.072 132.312C272.703 131.097 271.694 130.563 271.892 128.387C271.95 127.324 272.134 126.945 272.873 126.861L276.362 129.477C277.955 131.661 277.636 132.643 278.107 134.602C278.586 137.222 279.69 137.071 281.051 137.982C282.458 138.948 284.718 139.633 284.758 140.926L283.777 146.705C284.432 150.916 280.49 151.261 276.362 147.25L272.873 142.235C271.687 141.369 270.353 141.174 267.748 140.926C265.449 141.525 264.16 141.314 261.86 140.926C260.577 139.748 259.623 139.239 260.334 136.783C260.825 135.755 261.123 135.724 261.462 136.153C261.27 135.642 261.481 135.221 261.86 134.602C261.889 133.685 262.357 133.19 263.278 132.312L266.876 129.041H268.948L268.512 131.658L271.892 133.621L274.072 132.312Z" fill="#BA7B59"/>
<path d="M289.774 141.471C290.072 139.122 290.41 137.76 288.029 136.129L285.194 134.057C281.352 134.439 280.478 135.323 278.979 136.674L279.633 137.873L281.487 140.926L281.814 145.397L281.269 151.285C285.401 148.711 287.625 146.493 289.774 141.471Z" fill="#EFEFEF"/>
<path d="M118.145 305.364L135.164 269.435L140.223 271.358L122.591 306.695C119.994 307.067 117.783 308.056 118.145 305.364Z" fill="#D57725"/>
<path d="M150.692 279.019L135.357 280.199L139.191 272.237H154.231L154.673 279.462L150.692 279.019Z" fill="#D57725"/>
<path d="M152.609 333.28L153.789 279.314L152.609 276.071L161.603 276.955L158.359 332.543C156.052 334.952 154.803 334.841 152.609 333.28Z" fill="#D57725"/>
<path d="M166.161 283.554L160.276 288.309L160.912 277.103L174.431 279.31L170.773 282.706H166.956L166.161 283.554Z" fill="#D57725"/>
<path d="M234 314.849L228.545 300.251L224.269 301.726L230.019 316.323C233.526 316.833 235.406 317.067 234 314.849Z" fill="#D57725"/>
<path d="M109.701 162.388L149.807 168.728L187.701 164.452L197.728 221.809H211.883H221.762C225.371 223.338 224.858 224.611 224.858 227.56C224.784 231.125 224.517 232.98 222.941 235.669L231.493 248.497L233.41 260.293L213.799 274.153L180.034 280.494C172.25 280.786 167.846 280.324 159.981 277.987H151.576L130.196 267.96L123.856 252.478C119.179 244.472 117.334 239.654 116.336 230.066C107.893 207.36 105.405 192.683 101.297 166.221C100.712 163.33 101.395 162.394 104.983 162.388H109.701Z" fill="#546181"/>
<path d="M177.97 324.285V313.522L200.529 318.093C205.214 324.726 206.946 328.303 209.524 334.607C206.17 335.039 204.272 335.235 200.529 334.607C196.063 334.518 193.515 334.08 189.028 332.395L181.951 320.304V327.234L177.97 324.285Z" fill="#016099"/>
<path d="M223.236 320.158C220.533 317.012 219.003 315.263 217.191 311.163L202.151 303.496L200.529 312.048C205.696 314.851 207.103 317.678 209.081 323.107C209.681 325.207 210.371 325.932 212.178 326.498C217.769 327.706 220.599 327.474 225.448 326.498C224.805 324.01 224.862 322.594 223.236 320.158Z" fill="#016099"/>
<path d="M168.92 140.937L166.348 137.406L168.92 132.403L169.676 158.742L184.199 159.477L188.586 152.12L184.199 117.1C182.405 114.921 181.152 114.096 178.299 113.568C176.527 113.12 175.533 112.886 173.761 113.568L171.643 114.745L168.92 113.568C167.777 113.413 167.16 113.349 166.348 113.568C163.23 114.929 162.072 115.94 160.6 117.983C155.623 123.297 153.613 126.397 153.49 132.403C151.42 143.7 150.475 149.142 149.103 157.27L141.992 178.312H147.136L154.7 164.039L164.987 161.685L168.92 153.739V140.937Z" fill="#1B1823"/>
<path d="M166.918 152.075C168.61 146.222 167.731 142.486 166.918 136.141L187.996 149.474C186.106 149.383 184.344 149.083 182.541 150.296C181.762 150.949 181.312 152.481 181.226 152.726C181.044 155.591 181.261 157.195 181.842 160.042L183.38 162.644C183.585 166.211 182.919 167.697 180.149 169.798C176.419 171.753 174.331 171.445 170.61 170.448C166.412 168.756 164.387 167.642 161.994 164.595L159.686 160.042C163.592 159.476 165.023 157.386 166.918 152.075Z" fill="#D38C6D"/>
<path d="M163.808 166.214C161.727 164.525 161.146 163.277 160.535 160.83L149.973 226.489L147.89 232.921C155.311 237.454 160.302 238.328 170.056 238.155L186.866 235.014L191.477 227.237C192.37 224.844 192.709 223.437 192.965 221.105V217.216V210.785L194.006 208.242V204.503L196.089 199.717L198.023 192.687V181.919L185.08 159.035L181.214 156.194L181.361 159.484L181.956 165.018C181.84 166.559 181.956 167.261 180.915 168.158C178.838 169.422 177.271 169.613 174.37 169.804C172.605 169.747 171.371 169.491 168.866 168.757C166.643 168.26 165.566 167.645 163.808 166.214Z" fill="#F9F9F9"/>
<path d="M146.121 232.868L148.185 231.836C155.052 235.47 160.129 237.291 168.533 237.291C174.578 236.996 173.251 236.407 174.726 236.554H186.227C189.828 236.147 191.951 236.71 195.811 238.323V243.926L198.612 251.151V258.966L205.69 317.355C200.784 320.861 197.472 322.014 190.798 322.959C189.175 323.24 188.323 323.195 187.112 322.074L176.79 313.669L175.758 310.131L176.79 296.27L174.136 288.898L176.79 283.442L173.104 267.371L174.136 264.274L153.198 258.966C147.618 255.431 144.976 252.604 141.845 244.811C140.882 243.252 140.886 242.318 141.845 240.683L142.73 238.323V237.291C143.268 235.666 143.999 234.887 145.531 234.342C145.411 233.732 145.448 233.403 146.121 232.868Z" fill="#FEC601"/>
<path d="M223.531 232.131L199.94 231.246L186.522 234.932L180.034 257.639L197.875 259.851C202.683 260.003 205.311 259.32 209.966 257.639V258.524C210.763 258.875 210.908 259.199 210.998 259.851L208.049 263.39C205.081 266.33 204.475 268.379 203.921 272.237V283.295L202.741 285.949L196.106 289.636L192.567 305.118C206.603 310.978 214.481 314.079 228.839 312.785L231.493 261.178C233.347 254.077 236.359 249.087 234.295 242.157L232.82 239.061C231.897 237.054 231.34 236.056 230.166 234.932C227.855 233.187 226.544 232.24 223.531 232.131Z" fill="#FEC601"/>
<path d="M188.21 122.716L182.044 118.448H176.612L173.236 122.107L170.74 133.389L169.713 140.707C169.887 144.151 170.263 145.769 173.251 147.495C179.149 151.181 181.533 153.308 188.21 153.818C190.061 153.96 190.503 154.13 190.705 153.056V148.94C191.504 148.425 191.929 148.119 192.173 147.11C192.17 146.447 192.06 146.106 191.439 145.585L192.173 144.061C192.437 143.407 192.397 143.038 192.173 142.384C191.986 141.622 191.815 141.267 191.439 140.707L193.054 139.487C193.703 138.986 193.855 138.698 193.054 138.115L190.118 134.913L190.705 133.389C191.146 132.157 191.294 131.386 191.439 129.882C191.604 126.431 191.092 124.56 188.21 122.716Z" fill="#E69A79"/>
<path d="M178.854 124.934C180.166 123.054 179.439 122.689 179.317 119.922C180.565 119.503 180.624 120.364 181.508 121.839C184.163 124.64 188.204 124.345 190.355 124.493L187.849 121.248C186.492 118.863 185.649 117.661 183.425 116.677C181.799 115.949 180.888 115.56 179.297 115.645L170.892 116.677L162.635 123.607L157.622 162.091L164.699 156.636L166.026 144.545L168.975 131.717L170.892 133.044C172.303 132.929 174.224 132.323 175.316 130.537C176.352 129.451 177.043 128.487 178.854 124.934Z" fill="#1B1823"/>
<path d="M196.991 163.715C192.55 161.234 189.578 160.245 185.047 158.996C185.047 158.996 188.199 198.102 193.304 198.807C198.41 199.513 204.731 196.518 208.786 193.647L205.985 177.133C205.306 173.439 204.702 171.463 202.889 168.286C200.728 166.122 199.426 165.151 196.991 163.715Z" fill="#F9F9F9"/>
<path d="M168.533 131.571C169.792 131.725 170.772 132.299 171.482 133.045L170.302 140.418C169.128 140.572 168.493 140.296 167.353 139.091C166.604 137.932 166.309 137.04 165.879 135.257C165.372 132.673 165.418 131.464 168.533 131.571Z" fill="#E69A79"/>
<path d="M207.902 206.474C207.559 201.698 207.331 199.031 206.427 194.383H194.779C195.491 203.457 196.171 208.516 197.728 217.533C198.23 221.538 198.907 222.841 201.267 225.2C203.626 227.559 207.902 227.854 207.902 227.854L205.985 229.476C204.049 230.807 204.612 231.15 209.229 230.803L213.505 234.489L212.325 238.323C210.775 241.296 211.48 241.55 214.537 240.387C216.507 238.804 217.583 237.844 219.255 235.669C218.912 234.058 218.764 233.14 217.486 231.835C216.76 231.39 216.346 231.104 215.569 230.361C216.003 229.209 216.189 228.563 215.569 227.412L214.537 225.79L213.505 222.988C212.589 218.659 212.142 216.208 209.524 212.52L208.786 210.455L207.902 206.474Z" fill="#E69A79"/>
<path d="M154.968 162.147L160.866 159.734L158.064 189.901L159.096 203.778C152.417 205.536 148.966 208.846 142.287 205.437L141.992 183.717V179.041C142.224 175.877 142.68 174.113 144.352 171.046C146.037 169.061 147.044 168.025 149.07 166.37C151.199 164.478 152.511 163.57 154.968 162.147Z" fill="#F9F9F9"/>
<path d="M159.686 219.155C159.715 212.995 159.669 209.544 158.654 203.378L143.762 205C145.006 211.903 146.115 215.533 148.185 221.957C149.317 225.313 149.96 227.177 151.577 229.477C157.657 232.29 161 234.106 167.501 235.375C176.618 236.903 181.706 236.476 190.798 236.554L198.318 243.189C205.099 243.873 208.779 242.811 215.422 241.862C216.386 240.786 216.556 240.195 214.832 239.208C215.496 238.576 215.674 238.218 214.832 237.586H213.947H212.473C214.557 236.822 214.748 236.521 213.357 236.112H212.473H206.575L203.773 234.342C202.333 233.401 201.612 232.773 200.677 231.246L200.234 229.477L209.524 226.675C209.966 226.251 210.134 226.025 209.081 225.79H204.51H203.183H198.318C195.41 226.525 193.846 227.103 191.24 228.592C187.728 228.956 185.759 229.255 182.246 228.592L179.444 228.002C171.388 225.043 167.009 223.184 159.686 219.155Z" fill="#E69A79"/>
<path d="M380.563 165.484L341.342 160.619H297.698C291.365 160.435 289.766 161.558 290.03 165.484C286.196 188.199 288.477 200.911 292.832 223.579C287.026 224.144 283.769 224.507 277.94 225.938C274.905 229.404 274.443 231.343 275.728 234.932L282.068 270.025H283.985C318.153 281.953 337.36 287.829 373.191 273.121L386.904 236.997C387.886 233.74 387.709 232.065 384.839 229.624L375.993 228.15C386.852 209.713 387.973 196.272 389.94 172.693L390 171.972C388.661 166.878 387.101 164.906 380.563 165.484Z" fill="#546181"/>
<path d="M323.796 165.337C323.046 164.255 322.474 163.795 320.847 163.568V160.472L342.227 154.131C340.918 157.731 340.205 159.747 340.9 163.568L342.227 182.736L334.855 193.058L324.976 195.859L318.34 186.865L323.796 171.825C324.216 171.108 323.292 170.561 323.796 169.171V165.337Z" fill="#DFA178"/>
<path d="M359.776 226.817L354.455 224.316L342.775 236.968L334.989 255.504L312.148 248.001L313.705 255.504V258.887L315.522 284.338C322.432 284.998 326.006 286.181 332.263 288.604C334.527 280.125 334.913 275.222 333.821 266.243L354.455 258.887C359.05 256.65 360.735 254.133 362.501 248.001C363.888 242.611 364.508 239.586 363.669 234.173C362.739 230.747 361.992 229.04 359.776 226.817Z" fill="#016099"/>
<path d="M313.327 244.811L312.148 247.761L338.688 258.376L347.83 249.824V237.291C351.142 236.168 353.172 235.52 343.996 235.817C337.449 236.752 333.856 236.519 327.482 235.817L327.355 235.836C322.891 236.512 320.345 236.897 317.751 239.503C315.319 241.342 314.388 242.51 313.327 244.811Z" fill="#016099"/>
<path d="M297.108 257.787C304.543 259.62 308.695 260.615 313.622 257.787L342.522 235.67V225.791L332.79 227.118L320.847 228.74L313.622 223.727L309.788 225.791L285.312 233.901C281.383 235.457 280.328 237.049 278.529 239.946C276.578 241.371 276.059 242.553 275.138 244.664C275.198 246.666 275.509 247.482 276.465 248.498L272.632 275.629C271.757 278.745 272.44 280.824 274.401 283.738C274.725 281.793 274.278 280.44 275.138 280.052C282.421 281.418 286.239 283.166 292.979 286.54C295.264 275.306 296.5 269.007 297.108 257.787Z" fill="#016099"/>
<path d="M277.35 304.232C275.562 294.646 273.495 289.306 275.138 279.608L291.505 283.442C290.731 293.229 289.528 298.581 287.081 308.066C287.839 309.824 288.132 310.845 288.408 312.784V316.765L287.081 318.829L277.35 312.047V304.232Z" fill="#E9AA81"/>
<path d="M278.53 310.869L277.203 311.458L276.023 312.048C275.228 311.764 274.824 312.053 274.106 312.638C274.429 313.774 274.6 314.359 274.843 315.292L270.125 323.254L262.9 332.838L260.983 335.492C259.65 337.218 259.938 338.191 260.983 339.916C261.866 341.267 262.542 341.858 264.375 342.275L270.715 343.307C273.884 342.988 275.594 342.332 278.53 340.506C280.31 338.557 281.085 337.345 282.216 334.755C286.154 332.973 288.308 331.561 291.947 328.267L291.21 313.523L290.031 309.099L286.934 307.92L288.114 310.131V316.619L284.87 313.523L278.53 310.869Z" fill="#F4FEFE"/>
<path d="M317.029 310.128C317.993 300.028 317.707 294.258 316.583 283.885L333.675 287.525C332.257 298.312 330.866 304.353 327.879 315.134C329.252 317.945 328.914 318.232 330.136 319.715L323.717 320.747L315.097 315.741L317.029 310.128Z" fill="#E9AA81"/>
<path d="M315.833 312.342L314.949 312.785L305.217 326.497L297.255 334.754C295.718 336.637 295.896 337.75 296.813 339.768L299.172 341.684C303.139 343.951 305.711 344.478 311.557 342.717C314.137 342.152 315.791 341.697 319.077 340.652L325.123 336.081C328.36 334.836 329.805 333.897 331.905 331.805V325.318C331.359 321.11 331.246 318.744 330.283 314.554L329.988 312.342C329.839 310.19 329.402 309.866 327.777 311.31V314.554L328.366 318.535H327.187C326.115 318.096 325.526 317.825 324.68 316.766L323.648 314.849L315.833 312.342Z" fill="#F4FEFE"/>
<path d="M329.988 129.949L338.54 130.981L347.535 134.668L345.175 144.694L337.951 155.163C337.22 158.657 336.544 159.328 335.296 160.324C329.629 162.844 326.745 163.125 321.141 163.567C319.267 163.818 318.369 163.571 317.013 162.535C315.311 161.491 314.866 161.004 314.801 160.324L315.833 157.227V149.707C315.203 149.167 314.99 148.664 314.801 147.496C314.959 146.716 314.964 146.274 315.833 145.579L317.75 143.367L318.487 141.598L319.077 139.681C318.841 139.561 318.635 139.239 318.783 138.649C319.962 136.879 319.815 136.879 321.141 136.879L323.058 133.341L329.988 129.949Z" fill="#E9AA81"/>
<path d="M341.76 128.175L330.114 127.295C328.807 133.766 327.508 137.393 329.108 143.865C333.984 151.498 338.009 152.155 345.786 151.637C350.127 149.1 351.45 146.829 352.543 141.812C353.513 138.013 353.723 135.852 349.812 131.548C346.839 129.485 345.05 128.869 341.76 128.175Z" fill="#D7A168"/>
<path d="M345.324 147.644C344.048 147.418 343.337 147.531 342.08 148.233L337.804 154.869C337.516 156.014 338.145 156.18 339.721 156.196L343.112 154.426C344.086 153.959 344.568 153.566 345.324 152.657C346.075 151.61 346.339 150.888 346.356 149.266C346.393 148.321 346.218 147.911 345.324 147.644Z" fill="#E9AA81"/>
<path d="M339.278 147.79L337.214 143.809C331.169 141.868 328.055 139.945 323.501 133.487L322.027 135.257L323.501 130.833C325.912 127.009 327.82 126.64 331.611 127.59L348.42 132.308L350.779 143.809L342.964 147.79C340.598 147.963 340.592 151.314 338.393 153.983L339.278 147.79Z" fill="#D7A168"/>
<path d="M324.091 171.235L323.649 166.221C318.779 165.454 316.495 165.815 311.705 168.138C308.044 169.53 307.386 171.06 306.397 173.889L308.462 187.454L305.07 202.641L308.462 220.482C310.44 221.337 311.001 221.825 311.705 222.694C316.639 227.001 320.021 228.641 326.893 230.509L349.157 224.611L352.106 208.244L349.157 191.582L352.991 175.953L360.806 171.235C355.892 168.893 353.329 167.664 346.798 164.599C344.752 163.271 343.289 162.833 340.753 162.388L340.9 168.138C339.341 171.003 338.494 172.318 337.066 173.889C334.374 176.445 332.531 177.347 328.367 177.427C325.487 175.706 323.927 174.708 324.091 171.235Z" fill="#98989D"/>
<path d="M367.589 203.231L349.305 201.02V223.137C339.001 224.379 329.998 228.256 316.424 232.721L314.507 231.689L305.218 229.625C304.256 229.819 303.798 230.048 303.006 230.509L300.795 230.952L298.583 232.721C296.791 234.248 297.34 234.541 300.795 234.196H307.725L302.564 243.337L306.398 248.645L310.969 246.434L316.424 242.158C333.287 240.612 342.745 239.847 359.626 231.689C359.89 231.003 359.926 230.563 359.626 229.625L361.396 224.022C364.602 215.724 365.85 211.199 367.589 203.231Z" fill="#E9AA81"/>
<path d="M308.019 201.609L301.236 200.134C300.346 206.653 300.155 210.296 299.761 216.796C298.125 219.548 298.056 221.053 298.287 223.726C298.752 227.572 299.28 229.566 302.858 231.541L307.281 229.919L308.608 229.182L310.23 232.425C311.402 233.602 312.017 233.612 313.179 232.425L313.769 229.182C313.317 228.425 313.058 228.145 312.589 227.855L311.115 226.085C310.948 221.32 310.654 218.633 310.23 213.847L308.019 201.609Z" fill="#E9AA81"/>
<path d="M298.435 236.849C297.931 235.756 297.922 235.207 299.173 234.49L299.91 232.426L308.609 232.868L310.231 239.798L306.692 248.793C306.977 249.66 307.104 250.126 305.513 249.972L300.647 248.793L298.435 244.812L296.813 241.568C296.72 240.699 297.088 240.459 297.845 240.093L299.91 238.914L298.435 236.849Z" fill="#E9AA81"/>
<path d="M370.277 185.305C367.969 178.597 367.169 174.405 360.806 171.235L343.997 176.316L340.9 206.77C351.975 210.188 360.124 210.715 371.422 207.95C371.251 201.12 372.687 193.179 370.277 185.305Z" fill="#98989D"/>
<path d="M297.255 198.512C297.52 186.277 300.199 179.937 306.987 173.004L312.738 183.03L310.083 203.526C303.461 205.822 300.76 204.449 297.255 198.512Z" fill="#98989D"/>
<path d="M363.017 330.036L354.465 278.724L360.953 276.66L368.325 331.068L363.017 330.036Z" fill="#D57725"/>
<path d="M47.6255 55.489C50.7979 51.3062 51.331 47.2755 52.9337 38.6799V34.2565L70.6274 41.4814L76.2305 58.8803L72.9866 60.6497C72.1229 62.3998 71.9902 63.3617 72.1019 65.0731L75.0509 68.1695L84.0452 80.8501L72.9866 91.1714L58.6842 76.2792L47.6255 55.489Z" fill="#D6AA9E"/>
<path d="M48.9528 47.6735L51.3119 45.7566H46.7411L42.6125 53.5714L35.0927 54.8984C28.9258 56.7638 26.1982 58.8471 21.2325 62.4183L32.1437 91.613L27.5728 120.513C28.6713 124.289 29.4219 126.197 32.1437 127.443C29.8305 133.543 29.2653 136.971 29.3422 143.072C31.1174 148.522 32.7861 150.666 37.0095 152.804C41.7632 152.082 41.8433 153.46 39.6635 157.522H88.174L90.6806 143.072L85.225 129.212L72.9868 85.5676L71.3649 82.7661L67.0889 70.5279L64.1399 67.5789V64.0402L58.9792 59.1744L48.9528 47.6735Z" fill="#72B0EC"/>
<path d="M59.4215 59.3219L51.7542 47.6735L51.4593 45.7566H46.8884L42.7598 53.7188H42.0226L54.5557 69.0534L59.4215 59.3219Z" fill="#8AC2F8"/>
<path d="M73.1343 76.573L75.1986 73.3291L75.9358 68.9057L81.3914 65.2195C90.5408 70.8576 93.8055 74.2412 95.399 80.8489L94.5143 87.779L93.4821 96.0361C92.2508 105.898 92.1821 111 92.7449 119.628C92.6911 120.886 92.3822 121.332 91.123 121.397V127.148L94.5143 132.161C95.2693 133.796 95.2038 134.671 94.5143 136.142L95.8413 138.943L96.726 145.579L98.3479 147.643C99.4 148.906 99.3579 149.658 97.4632 151.182L88.3215 157.374L86.5521 144.399L73.1343 85.8622V76.573Z" fill="#72B0EC"/>
<path d="M80.3354 60.2184L75.3153 58.8798L71.8165 60.2184L71.5122 65.8703L76.6844 69.5886C78.3862 70.2933 79.3923 70.2085 81.2481 69.5886C82.0204 69.2738 82.037 69.0872 81.2481 68.6962L79.879 68.1013L81.2481 66.9114L81.7045 62.4494C81.8084 61.0826 81.6815 60.459 80.3354 60.2184Z" fill="#8AC2F8"/>
<path d="M87.5836 157.375H40.1054L30.6687 159.292V184.358C31.6624 193.165 33.4526 194.666 36.8615 196.744L41.5799 229.183L38.4834 234.786C37.9395 243.415 37.9539 248.27 38.4834 256.903C37.1025 260.545 36.4511 262.479 35.8294 265.455C36.7139 287.213 39.0602 297.971 42.612 317.652C51.2391 322.589 55.7936 321.187 63.8445 317.652L61.7802 272.385L59.5685 268.699L61.7802 265.455V260.147L67.3833 249.678L72.6914 216.355C74.3526 223.118 75.4888 226.78 78.4419 232.721C77.1222 242.577 77.0688 248.079 78.4419 257.935C77.5602 279.078 78.2937 290.936 83.3076 312.049C92.659 314.475 97.8011 314.207 106.604 308.215C103.539 302.964 101.828 300.019 101.444 294.207L102.771 266.634V260.147C102.843 258.072 102.657 256.936 101.444 254.986C102.123 253.864 102.497 253.227 102.771 251.742C105.609 249.908 106.113 248.363 106.604 245.402V206.771C107.399 203.65 107.634 201.853 107.637 198.514C108.215 190.506 108.653 186.007 105.425 178.313V166.075L97.1678 159.292L99.0846 155.754C98.8321 153.032 98.3066 152.187 97.1678 151.035L87.5836 157.375Z" fill="#051D6D"/>
<path d="M62.518 316.177L50.5747 317.356C52.2969 320.716 52.4991 322.87 51.7543 327.088C51.6057 329.353 51.6192 330.652 52.3441 333.133L52.0492 336.23L52.3441 339.179L64.8771 339.916L68.4159 333.133L66.4991 326.351V323.402C65.9663 322.045 65.6465 321.332 64.8771 320.453L62.518 316.177Z" fill="#DFB0A4"/>
<path d="M58.2419 330.037C54.6153 333.534 55.1472 335.396 55.146 337.409L53.6715 338.589L51.0174 334.165L51.7542 327.235L50.2802 329.889C48.775 332.571 48.5768 334.049 48.6583 336.672L49.3955 340.506C49.8858 347.508 51.6318 350.432 56.6205 354.366L69.8908 355.25C72.9835 355.08 74.3706 354.686 75.9361 353.334C76.8481 352.334 77.1404 351.728 77.4106 350.532L70.7755 335.492V332.691L68.8586 330.627L67.0888 328.562C67.8324 330.528 68.5771 331.853 69.8908 333.576C69.9424 334.41 69.6731 334.505 68.8586 334.165L63.698 329.005C61.3383 328.415 60.7485 328.415 58.2419 330.037Z" fill="#F98F3F"/>
<path d="M51.0171 334.165L51.312 329.889L51.7543 327.382L52.4915 333.133L52.1966 336.524L51.0171 334.165Z" fill="#CC7431"/>
<path d="M69.8902 333.428L67.2362 329.004L68.2683 332.838L68.1209 333.428L68.8581 334.165C69.8816 334.571 70.0083 334.301 69.8902 333.428Z" fill="#CC7431"/>
<path d="M106.9 135.257L111.028 139.975L119.728 140.712L122.087 139.385L128.132 120.807L112.208 121.839L107.489 125.083L106.31 128.769L106.9 135.257Z" fill="#DFB0A4"/>
<path d="M88.4688 315.882C88.3233 314.923 88.4971 314.332 89.3535 313.227L88.4688 309.099L103.066 306.74C104.982 309.489 105.977 311.145 108.964 312.343L112.06 314.997L113.977 323.254L88.4688 322.369V315.882Z" fill="#DFB0A4"/>
<path d="M93.6303 23.1969C93.1411 20.5842 92.9183 19.1028 90.5339 17.1516C89.0329 12.117 86.8996 9.99289 81.3922 7.12511C80.0678 6.03105 81.3922 7.12524 78.0008 4.32359C74.6095 1.52195 71.2539 1.60067 67.6795 2.25932L59.4224 4.32359C56.5408 6.27374 55.1084 7.41395 54.2617 9.92662C52.7399 12.8595 52.1349 14.4393 51.4602 17.1516C51.0643 20.8168 50.6768 22.9117 51.4602 26.2934C52.5038 32.2737 52.7435 34.5051 53.2296 38.679L64.7305 40.3009L59.4224 31.3066L62.6663 26.2934H66.6473L70.9233 31.3066L67.6795 40.3009V46.4937C68.7369 52.9358 70.303 55.6414 74.3146 59.4692C81.8485 61.4512 83.8901 61.3478 84.4886 59.4692V56.5202C85.7341 56.4644 86.5591 56.2592 87.8799 54.6034V52.9814L89.2069 50.9172C90.3036 50.8664 90.519 50.4396 90.5339 49.2952C90.4143 48.2977 90.4338 47.6687 90.5339 46.4937L93.6303 47.5259C95.6468 47.7015 96.0422 47.193 95.8421 45.4616L92.4508 35.5826L94.6625 31.3066C94.7306 28.1705 94.4795 26.3999 93.6303 23.1969Z" fill="#DFB0A4"/>
<path d="M91.2704 18.3321L85.5199 17.3C80.1155 17.8144 77.6397 18.5861 75.346 21.8709L73.1342 33.2244C71.518 37.0395 70.3778 38.1228 68.2685 39.7121L70.4802 31.3076L66.6465 26.2943H62.8129L65.0246 31.3076V40.4493C53.1825 44.9036 50.6551 44.3968 52.639 38.8267L51.7543 27.7688C50.0796 24.2564 49.956 21.4221 49.69 16.4153C50.6133 10.9199 51.9667 8.142 56.915 4.17712C61.148 1.80017 63.8617 1.08433 69.0057 0.343471C76.2784 -0.799588 79.7694 0.932512 84.9301 5.20926C89.6716 8.91982 90.8973 11.7562 92.155 17.3C92.4612 18.6725 92.2583 18.9454 91.2704 18.3321Z" fill="#1B1823"/>
<path d="M70.6235 31.2918L70.6276 31.3071L67.9736 41.481C64.3357 41.1767 60.0114 33.5188 60.0114 33.5188C60.0114 33.5188 58.9893 28.7141 62.0757 25.999C64.0909 24.5284 65.2208 24.948 67.2363 25.999C69.6 27.5039 69.9685 28.8678 70.6235 31.2918Z" fill="#DFB0A4"/>
<path d="M45.1192 185.832L41.433 181.851L39.9585 180.967L48.2156 170.056L52.3441 174.921L47.036 189.371C46.6907 190.206 46.4967 190.09 46.1513 189.371C45.5069 188.047 45.229 187.281 45.1192 185.832Z" fill="#DFB0A4"/>
<path d="M11.5248 68.8856C14.4177 66.3053 16.0492 64.8502 21.2325 62.4192L41.2854 79.2283L37.8941 95.595L23.5917 135.848L29.3422 145.138L52.3441 171.973L39.5161 183.474L28.4575 171.973L22.707 167.402L19.0208 163.274L15.6295 160.767L6.63516 148.087L4.27599 146.612C2.55854 144.321 1.947 142.707 1.32703 139.387L0 131.13C2.90491 115.395 3.09055 107.856 8.55199 89.8446C7.01769 89.2594 6.61618 88.6006 6.63516 86.8956L9.43667 81.2926L8.55199 79.2283C8.44546 75.0059 9.02728 72.7362 11.5009 68.9069L11.5248 68.8856Z" fill="#72B0EC"/>
<path d="M112.355 319.568C108.797 314.504 108.183 312.907 108.669 311.459C121.077 317.162 128.088 318.695 140.665 318.684C143.388 319.994 143.751 320.828 140.665 322.665C125.795 330.027 117.303 329.718 102.181 329.89H86.4043C86.4759 328.861 86.6184 328.354 86.9941 327.53C84.6864 323.719 83.9363 321.571 86.4043 317.651C87.5017 316.117 87.9674 315.924 88.7634 315.735L111.618 320.6L112.355 319.568Z" fill="#F98F3F"/>
<path d="M100.265 128.623H106.31L110.291 135.11L110.439 141.156L101.002 139.534L100.265 128.623Z" fill="#DFB0A4"/>
<path d="M94.5141 124.494C92.2961 123.069 91.3612 122.186 90.2382 120.513L88.7637 140.271L102.181 141.598L109.701 142.483C111.505 141.195 111.78 140.305 111.028 138.502L108.374 140.271L105.278 138.502C103.884 137.294 103.373 136.329 103.656 133.341C103.896 132.364 104.208 131.712 105.278 130.245L107.047 127.296H102.181L94.5141 124.494Z" fill="#72B0EC"/>
<path d="M126.068 112.993L113.388 112.109C110.999 122.303 109.058 128.208 113.388 136.29C116.631 141.008 120.384 140.13 124.889 137.912C130.365 128.172 129.715 122.718 126.068 112.993Z" fill="#0385A9"/>
<path d="M107.785 126.558L107.195 123.904C107.139 122.821 107.025 122.199 107.785 121.25C108.824 119.319 109.5 119.671 110.734 120.66C112.165 121.782 112.411 122.504 112.208 123.904C111.654 126.068 110.734 126.558 110.734 126.558C110.271 127.229 107.945 127.882 107.785 126.558Z" fill="#DFB0A4"/>
<path d="M130.048 121.692L128.574 120.66L126.51 122.577C125.576 123.381 125.815 123.836 126.51 124.641L129.311 125.231C129.775 125.139 129.964 125.029 130.196 124.641L130.491 123.019L130.048 121.692Z" fill="#DFB0A4"/>
<path d="M126.216 125.526C127.317 125.519 127.922 125.596 129.018 125.821H129.902C130.709 126.407 130.974 126.846 131.082 127.885L130.934 128.918C130.451 129.5 130.16 129.658 129.607 129.655L127.543 129.36L125.184 128.328L124.742 127.296C124.766 126.804 124.87 126.561 125.184 126.263L126.216 125.526Z" fill="#DFB0A4"/>
<path d="M126.805 132.162C127.562 132.026 127.989 132.137 128.722 132.605C129.2 132.905 129.476 133.106 129.902 133.637L129.607 135.111C129.529 135.767 129.347 136.006 129.027 136.425L129.017 136.438C128.296 136.569 127.883 136.69 127.248 136.438L125.478 135.996L124.594 135.259V133.637L125.478 132.605L126.805 132.162Z" fill="#DFB0A4"/>
<path d="M120.907 138.206L123.119 138.059H125.478C125.762 138.425 125.869 138.67 125.921 139.238C125.976 139.819 125.859 140.089 125.478 140.418C124.714 141.099 124.26 141.237 123.414 141.155L121.35 141.008C120.667 140.913 120.397 140.726 120.023 140.27V138.943C120.214 138.486 120.407 138.338 120.907 138.206Z" fill="#DFB0A4"/>
<defs>
<filter id="filter0_f_1_388" x="241.558" y="80.9333" width="30.7917" height="40.1689" filterUnits="userSpaceOnUse" color-interpolation-filters="sRGB">
<feFlood flood-opacity="0" result="BackgroundImageFix"/>
<feBlend mode="normal" in="SourceGraphic" in2="BackgroundImageFix" result="shape"/>
<feGaussianBlur stdDeviation="3.5" result="effect1_foregroundBlur_1_388"/>
</filter>
<filter id="filter1_f_1_388" x="226.676" y="85.8963" width="26.9724" height="32.8604" filterUnits="userSpaceOnUse" color-interpolation-filters="sRGB">
<feFlood flood-opacity="0" result="BackgroundImageFix"/>
<feBlend mode="normal" in="SourceGraphic" in2="BackgroundImageFix" result="shape"/>
<feGaussianBlur stdDeviation="2" result="effect1_foregroundBlur_1_388"/>
</filter>
</defs>
</svg>
