<svg width="523" height="386" viewBox="0 0 523 386" fill="none" xmlns="http://www.w3.org/2000/svg">
<path fill-rule="evenodd" clip-rule="evenodd" d="M226.074 381.347C302.806 381.348 445.964 400.742 496.766 360.335C551.262 316.99 506.894 239.884 488.249 172.818C470.717 109.755 385.938 103.677 331.184 67.7686C295.083 44.0935 269.046 5.11093 226.074 0.88269C179.379 -3.71194 128.796 9.43948 98.0072 44.8248C68.4776 78.7625 82.5731 128.258 76.4716 172.818C68.4961 231.064 -26.8695 303.646 7.40639 351.423C42.4086 400.212 166.077 378.42 226.074 381.347Z" fill="#D5F0FB"/>
<path d="M265.644 176.08L260.492 171.231L266.957 157.896L282.817 157.391L285.04 164.866L272.917 171.736L265.644 176.08Z" fill="#D99B82"/>
<path d="M151.998 295.078C153.261 284.659 154.262 279.056 157.149 269.925L190.89 276.188L187.354 309.322C189.467 334.239 189.254 347.389 187.354 369.933C188.04 374.708 188.526 377.415 187.354 381.651H163.009C162.289 378.418 162.612 376.245 163.009 372.459C158.2 355.609 156.788 345.957 154.422 328.718C151.295 316.176 151.504 308.609 151.998 295.078Z" fill="#723F27"/>
<path d="M191.395 366.499C189.615 344.291 188.823 331.274 187.354 308.211L191.092 274.37L216.65 271.845C221.449 279.64 223.009 284.357 224.832 293.059C227.124 300.763 226.347 304.07 224.832 312.05L215.336 366.499C217.43 372.591 217.967 375.943 218.266 381.854H195.032C194.322 378.263 194.516 376.252 195.032 372.661C193.103 371.376 192.318 370.016 191.395 366.499Z" fill="#723F27"/>
<path d="M179.576 195.372C177.147 189.322 175.319 187.052 172 183.149V179.513L197.052 189.412C203.629 188.994 207.362 190.479 214.023 193.352L210.589 201.737C202.757 211.75 197.714 216.128 188.567 223.658C182.318 215.006 177.943 210.686 176.344 199.211C177.957 197.942 178.792 197.185 179.576 195.372Z" fill="#B07C57"/>
<path d="M176.444 199.515L180.384 195.777L176.747 189.009L133.511 173.755L128.965 188.403C134.62 192.167 137.336 194.75 140.178 201.434C144.222 212.478 146.741 218.367 153.21 226.487L156.341 267.803C159.867 273.18 162.962 274.27 168.969 275.38L210.487 276.794C214.584 276.314 216.578 275.513 219.781 273.46C222.139 270.439 222.785 268.541 222.812 264.874L220.69 259.621C222.706 257.97 224.098 257.451 227.559 258.004C228.463 254.475 228.893 252.452 228.469 248.105C230.757 243.429 231.983 240.789 233.62 235.881L230.489 230.83C228.723 227.632 227.57 225.922 227.559 221.84L232.408 217.294C233.073 215.373 233.293 214.257 232.408 211.94C228.725 204.651 226.589 200.596 219.781 194.666L209.578 191.534L212.811 194.666L203.113 200.222L204.931 205.576L190.284 222.749L188.566 221.84L176.444 199.515Z" fill="#DDDDDD"/>
<path d="M176.545 189.211L173.212 183.554L201.194 185.777H206.75L213.72 173.049L208.77 170.321C211.948 169.96 214.125 170.449 214.831 165.775C213.152 163.229 211.817 162.199 209.477 160.32C211.135 161.346 212.062 161.454 213.72 160.32C213.683 158.566 213.162 157.562 211.498 155.774C206.573 147.46 203.321 143.242 194.426 138.5C190.957 136.49 188.572 135.799 183.011 135.874C177.31 136.451 174.46 137.364 169.979 140.015C163.658 143.346 160.819 145.338 155.837 148.905C145.611 156.312 139.977 158.603 134.825 170.725C134.07 175.736 133.943 178.542 134.825 183.554C134.41 186.856 135.679 188.329 138.461 190.828C142.877 191.615 145.037 190.938 148.462 188.1C148.823 191.178 149.556 192.898 152.099 195.98C156.037 197.277 157.926 196.487 160.989 193.656C163.468 197.41 165.309 198.108 168.868 198.505C172.118 197.046 173.628 196.046 175.333 193.656C176.16 192.27 176.447 191.327 176.545 189.211Z" fill="#191E1D"/>
<path d="M182 189.009C178.029 187.5 175.689 186.251 173.414 182.645L165.938 167.896L189.981 156.885C197.655 164.136 196.701 161.047 200.689 170.927C201.767 178.16 201.396 182.059 200.689 189.009C200.122 190.7 198.864 190.859 196.244 190.827C190.622 191.486 187.516 190.793 182 189.009Z" fill="#C88D63"/>
<path d="M169.979 175.169C175.778 172.819 179.297 171.848 180.687 163.855C186.06 164.364 188.809 163.902 193.011 161.027C197.363 165.394 199.029 167.933 201.295 172.543L210.689 175.169L191.799 154.46L176.848 161.027L162.302 166.886L163.312 190.625H174.424V184.261L169.979 175.169Z" fill="#191E1D"/>
<path d="M169.474 183.353C171.09 185.171 172.241 185.173 173.717 182.141L170.181 175.17C168.422 173.574 166.848 173.756 166.645 175.777C166.637 177.296 166.67 178.139 167.453 179.514C168.228 181.175 168.665 182.017 169.474 183.353Z" fill="#C88D63"/>
<path d="M228.469 160.219C233.758 158.071 236.718 158.177 242.006 160.219L230.186 192.848C222.927 195.074 218.858 194.464 211.599 192.848L200.588 189.413L200.891 187.191L201.396 179.312L228.469 160.219Z" fill="#B9BBBA"/>
<path d="M328.073 197.092L306.859 194.566L298.879 162.139H306.859L328.073 165.069V197.092Z" fill="#B9BBBA"/>
<path d="M231.601 323.97C227.41 301.639 226.302 291.566 226.954 278.613L266.048 288.008L266.755 326.092C270.564 344.63 269.952 354.757 268.27 372.762C268.751 373.301 269.094 373.62 269.988 374.278C271.173 377.305 271.538 378.953 271.806 381.854H245.743C243.913 368.295 242.675 360.657 240.288 347.003C236.303 338.418 234.118 333.571 231.601 323.97Z" fill="#D19960"/>
<path d="M272.816 354.175L266.755 323.87L263.018 278.209L295.748 274.977C301.395 276.912 302.799 278.644 302.718 282.654C303.423 307.23 302.167 321.05 300.293 345.69C301.36 350.218 302.052 352.732 303.324 357.206C302.395 360.751 301.388 362.239 299.283 364.58V381.854H274.635L272.816 369.025C270.968 366.229 270.293 364.56 269.887 361.348C270.263 358.371 270.922 356.804 272.816 354.175Z" fill="#D19960"/>
<path d="M246.046 160.422H241.904L230.085 192.646C236.078 220.072 233.58 235.508 230.691 260.935C228.262 261.893 226.954 265.582 226.044 266.087C225.135 266.592 227.955 268.632 230.691 268.814C226.951 271.388 226.746 273.442 226.044 276.997C239.504 292.263 248.3 293.431 263.926 295.887L266.048 284.876L272.109 293.968C279.4 285.485 284.176 281.406 295.646 276.997H306.758V196.99L305.344 169.311L309.789 162.745C308.206 160.224 306.825 159.097 303.323 157.694C295.424 156.325 290.949 156.124 282.817 157.694L281.2 164.462L266.048 174.665L246.046 160.422Z" fill="#B9BBBA"/>
<path d="M245.036 143.552C245.46 139.241 245.406 136.686 249.38 134.056L278.17 129.712L274.433 149.916L270.695 164.159V167.493C263.855 171.112 259.788 171.899 252.411 172.645C248.722 173.654 247.428 173.272 247.057 170.221V161.129C244.514 161.389 243.135 161.473 242.309 159.412L245.036 153.653C245.552 150.038 245.903 148.049 245.036 143.552Z" fill="#E2A48B"/>
<path d="M255.138 144.258C258.757 148.248 261.363 149.172 266.452 149.814L264.533 154.663C264.388 157.93 266.082 158.843 269.786 160.118L272.109 159.209C279.504 153.893 280.638 153.822 281.706 158.603C285.999 157.613 288.698 155.819 291 150.723C294.386 151.127 295.516 150.346 297.263 148.602C298.676 145.805 299.028 144.186 297.263 141.026C294.986 137.698 293.433 136.184 289.585 134.864C287.593 128.499 284.75 126.014 279.281 121.832C271.983 118.155 268.065 118.449 261.3 121.832C255.02 124.932 252.826 127.438 249.481 132.237C249.627 134.727 249.837 136.123 251.501 138.601L255.138 144.258Z" fill="#C87C57"/>
<path d="M277.362 155.372C277.362 155.372 273.124 156.159 271.806 159.008L270.493 163.554C272.899 164.735 274.249 164.635 276.655 163.554C280.022 162.548 281.504 158.402 281.504 158.402C281.504 158.402 282.367 156.442 280.898 155.372C280.114 154.663 277.695 155.023 277.362 155.372Z" fill="#E2A48B"/>
<path d="M253.825 163.35L247.056 161.431V171.23C247.073 172.127 247.161 172.605 248.268 173.149C249.935 173.335 250.866 173.263 252.511 172.644C260.061 171.901 264.163 171.131 270.695 167.694V164.26L272.109 159.108H267.26C266.092 160.95 265.426 161.979 263.017 163.35C260.229 164.244 258.734 164.826 256.249 166.078C255.691 164.713 255.271 164.03 253.825 163.35Z" fill="#C87C57"/>
<path d="M328.074 194.113C328.449 189.282 328.583 186.529 328.074 181.183V178.96L339.994 176.132L352.722 186.739C350.452 188.613 349.992 189.758 349.894 191.891C349.854 193.231 350.092 193.903 351.106 194.921L362.117 196.335L360.905 203.811C357.711 212.262 354.898 216.556 347.065 223.004H342.317C333.51 217.062 328.668 213.635 323.73 203.811L325.346 196.335L328.074 194.113Z" fill="#844E35"/>
<path d="M379.341 265.129L325.59 268.115C316.128 272.746 315.714 278.736 315.284 289.635C314.091 302.272 314.413 309.327 317.406 321.864C326.721 345.847 328.453 358.901 332.922 381.853L354.136 382.055H381.261C381.509 376.125 381.569 373.124 381.261 366.243L386.919 328.763L389.344 304.566C390.009 287.888 390.114 278.912 379.341 265.129Z" fill="#9EB9C4"/>
<path d="M306.758 214.163L315.951 226.237L320.093 195.022L306.758 193.151V214.163Z" fill="#995C3F"/>
<path d="M380.603 233.51L375.451 230.884L373.128 200.578L384.038 214.115L380.603 233.51Z" fill="#995C3F"/>
<path d="M328.377 180.475H332.923L331.003 173.505L328.377 170.07C326.945 169.325 326.259 169.701 325.144 171.08C323.834 173.609 323.802 175.02 325.144 177.546C325.845 179.079 326.469 179.781 328.377 180.475Z" fill="#995C3F"/>
<path d="M320.093 195.022H326.356C324.531 198.653 324.137 200.688 323.831 204.315C329.509 213.631 333.954 217.203 342.317 223.004H347.166C354.208 216.482 357.412 212.457 361.106 204.315L361.915 196.335L372.926 196.537L373.835 211.791C375.242 222.747 375.704 228.879 376.057 239.773C381.423 247.74 383.583 252.349 386.765 260.684C383.007 266.737 379.561 268.498 371.41 269.169C366.039 271.153 363.054 271.365 357.672 270.18L354.54 266.947C348.221 271.062 344.255 271.705 336.862 271.594C331.341 272.581 328.242 272.147 322.719 269.169C319.234 268.18 317.588 267.033 316.052 262.3V255.027C314.756 242.521 314.847 235.511 316.052 223.004L320.093 195.022Z" fill="#F1F1F1"/>
<path d="M373.33 215.328C362.813 208.876 358.42 203.539 350.5 194.114C347.689 191.636 347.435 189.935 347.671 186.74L357.268 183.204L384.644 214.217L380.199 220.076L373.33 215.328Z" fill="#774F36"/>
<path d="M339.387 185.728C335.927 184.228 334.567 183.028 333.225 180.273H320.295L318.275 162.696L330.902 147.442L347.166 149.563C354.678 155.338 354.66 159.378 355.955 166.333C358.42 167.69 358.839 169.228 359.58 171.949L359.591 171.99C359.425 174.609 359.111 176.086 358.076 178.758C358.315 182.518 358.631 184.704 355.955 187.243C349.094 187.257 345.339 187.123 339.387 185.728Z" fill="#995C3F"/>
<path d="M334.438 155.524C340.93 154.318 343.072 152.41 347.166 149.564C344.355 146.693 341.9 145.38 331.811 146.23C327.468 147.087 325.205 148.303 321.305 151.079C316.286 155.511 314.466 158.461 313.628 164.413C315.538 178.042 317.158 185.18 323.427 194.82L328.68 194.012L327.872 169.767C331.276 164.691 332.649 161.535 334.438 155.524Z" fill="#774F36"/>
<path d="M352.52 163.807H354.54M354.54 163.807V161.585H362.117V167.747C361.9 169.178 361.296 169.653 359.894 170.272C358.433 170.421 357.628 170.294 356.258 169.161C354.939 167.273 354.614 166.08 354.54 163.807Z" stroke="#535353" stroke-width="3"/>
<path d="M344.034 161.08L352.318 161.686V166.939C351.893 169.45 351.171 170.079 349.388 170.374C347.331 170.364 346.202 170.271 344.539 168.859C343.496 165.821 343.304 164.118 344.034 161.08ZM344.034 161.08L327.669 169.667" stroke="#535353" stroke-width="3"/>
<path d="M370.905 198.203L365.652 197.193C361.549 195.85 360.752 188.126 357.571 184.869L357.975 183.757L362.319 184.869C365.367 185.448 366.93 185.948 369.592 186.99L382.017 192.546C386.674 198.747 388.453 202.416 389.695 209.416L387.169 217.396L381.007 223.66C379.746 224.869 379.038 224.889 377.775 223.66C377.065 221.845 376.778 220.828 377.775 219.013L381.007 212.75L376.562 205.476L374.239 212.75C370.836 217.527 370.476 215.55 369.592 212.75L370.905 206.992V198.203Z" fill="#D29276"/>
<path d="M401.514 158.098L401.615 151.128L402.12 152.138V156.583L402.524 159.108L401.514 158.098Z" fill="#A48362"/>
<path d="M78.3556 327.203L80.1739 315.687L95.6298 297.706L136.744 291.442L150.786 319.93L147.351 356.902L138.159 381.854H114.823V375.591V356.902L113.409 344.275L108.762 364.58L105.934 377.409V381.854H76.7393L78.3556 364.58V336.295V327.203Z" fill="#577786"/>
<path d="M78.3554 268.41L83.5074 233.155L86.942 195.273L96.1347 187.899L136.845 193.354C141.12 205.979 144.376 211.811 150.281 222.851L145.937 241.54C147.431 261.552 148.323 272.487 150.079 291.342L152.402 317.505C147.658 324.68 144.722 327.823 138.461 330.133L133.006 306.797L125.834 333.062C122.46 333.801 120.932 332.832 118.46 330.133L103.913 309.727C100.788 307.994 99.0514 306.971 96.1347 304.575L88.3563 309.727L78.3554 317.505L83.5074 280.937L83.4567 280.857C80.54 276.252 78.89 273.647 78.3554 268.41Z" fill="#4C2329"/>
<path d="M155.13 252.651L146.341 244.771L145.836 241.337L150.382 222.749L153.109 226.184L155.13 252.651Z" fill="#4C2329"/>
<path d="M108.055 195.88L103.408 188.404L105.429 185.172L124.925 193.455L121.086 196.89L115.732 199.617L108.055 195.88Z" fill="#915C39"/>
<path d="M112.803 196.789L101.488 186.586L97.7508 184.969L96.0335 188.808C95.5368 190.156 95.6091 190.91 97.1447 192.243L115.227 207.598C116.946 203.137 118.144 200.729 121.187 196.789H112.803Z" fill="#3E1D1E"/>
<path d="M125.834 202.344C124.361 199.847 123.365 198.594 120.884 196.99L124.117 193.252L132.602 191.434C133.961 192.176 134.57 192.912 135.734 194.06C131.594 197.031 129.343 198.766 125.834 202.344Z" fill="#3E1D1E"/>
<path d="M86.74 318.617C84.5695 312.418 82.2593 309.615 77.5473 304.979L75.527 302.252L86.74 297.706C90.5907 301.093 92.326 303.04 94.5185 306.696C97.3957 306.602 98.8856 307.063 101.388 308.515L116.945 327.506C116.945 327.506 117.753 328.516 116.945 328.516C116.136 328.516 114.621 327.506 114.621 327.506L106.54 322.96L114.621 330.335C115.826 332.536 115.257 332.811 112.298 331.85L101.388 325.789L110.782 335.689C112.184 339.335 110.987 339.15 107.954 337.81L98.6602 328.516L104.014 339.123C104.349 341.43 103.745 341.38 101.388 339.123L86.74 318.617Z" fill="#BA7A4E"/>
<path d="M128.461 162.039C125.749 156.191 123.733 154.327 119.672 152.341H107.651L89.9726 160.523L86.4369 166.787L94.4174 177.191L101.691 178.505L104.115 186.889C107.017 189.885 108.668 191.101 111.692 191.94L126.743 193.961C130.883 194.565 131.625 193.741 132.501 191.94V183.758V174.969V170.019C132.198 168.605 131.945 168.122 130.077 166.787L128.461 164.968V162.039Z" fill="#BA7A4E"/>
<path d="M104.62 166.584L102.297 165.473V167.898L107.045 172.948L103.61 175.777L105.732 178.909V180.626L101.186 178.909H94.1144L90.0737 172.948C87.241 169.599 84.9749 168.359 84.0126 163.251L86.336 155.472C87.543 151.185 88.8044 148.98 94.1144 146.078C97.0145 144.909 101.994 144.181 105.732 144.259C109.469 144.337 110.91 144.514 114.621 146.078L120.783 152.846C120.4 154.443 120.098 155.277 119.47 156.684C115.861 162.805 112.111 164.46 104.62 166.584Z" fill="#0E1618"/>
<path d="M95.2255 176.787L101.59 178.505L104.519 187.091C104.134 188.946 103.228 188.842 100.681 187.091L96.3367 183.96C94.4112 182.45 93.3115 181.613 92.9021 179.414C92.5816 177.371 92.8974 176.634 95.2255 176.787Z" fill="#BA7A4E"/>
<path d="M68.3544 208.607L86.9418 195.374L90.2754 231.841L85.1235 252.752L75.2237 268.713L90.2754 299.524C86.7667 299.335 84.7979 299.74 81.2848 300.938C76.7852 303.98 73.7822 305.274 70.5768 309.424C69.8583 308.636 69.4162 308.171 68.3544 307.201C66.9347 307.695 66.1376 307.796 64.7178 307.201C64.7305 304.458 65.059 303.045 66.7381 300.938L51.8884 278.916C49.6221 273.511 49.1309 270.483 51.8884 265.077L55.6261 246.085L60.0709 225.78C62.3134 218.176 63.9132 214.225 68.3544 208.607Z" fill="#4C2329"/>
<path d="M82.2953 187.797L92.5992 178.504L97.9531 185.171C94.8814 190.433 92.7843 193.004 87.8513 196.384C89.8991 199.074 90.3607 200.647 91.1828 203.448L91.1849 203.455C91.3073 206.503 90.9823 207.942 90.2757 210.426L92.5992 217.295C92.0989 217.47 91.8017 217.517 91.1849 217.295C89.8609 217.128 89.1289 216.8 87.8513 215.477L86.033 207.395H84.9218L86.033 223.154C85.7074 224.363 85.4759 224.494 84.9218 223.154L82.2953 220.527V224.164C81.4544 227.625 80.7844 227.38 79.4668 225.578L77.9515 223.154L76.3352 225.578C75.3566 226.625 74.8871 226.089 74.1128 224.164L71.9914 220.527C71.1456 222.017 70.6287 221.87 69.668 220.527L68.4557 215.477L70.8802 205.981L76.3352 194.364C77.7554 191.127 78.8539 189.537 82.2953 187.797Z" fill="#C88D63"/>
<path d="M413.939 185.979C412.992 185.024 411.746 184.521 409.798 183.959L424.647 167.998H432.123C433.982 173.315 434.559 176.355 434.648 181.838C436.374 185.39 437.548 186.897 439.8 189.212V214.062L415.051 209.214L411.414 192.344C413.115 191.076 413.64 189.636 413.939 185.979Z" fill="#D9A991"/>
<path d="M403.534 165.573L402.221 156.885C401.666 149.665 403.402 146.66 411.009 143.652C417.504 142.673 420.367 144.005 425.556 146.178C428.123 154.82 428.657 159.668 428.385 168.301C428.218 171.185 427.616 172.154 426.364 173.655C420.082 178.194 416.477 180.383 409.999 184.059C406.996 185.448 406.17 184.989 405.756 182.645V177.493C404.317 175.136 403.646 173.708 402.625 171.028L402.618 170.999C402.157 168.955 401.896 167.8 403.534 165.573Z" fill="#EEBBA1"/>
<path d="M402.221 153.35C407.655 151.068 409.958 148.935 413.737 144.763C417.955 153.919 421.613 156.303 428.486 159.815L435.456 181.433L446.972 186.08L446.164 182.847C444.349 177.844 442.803 175.335 438.689 171.634C440.388 165.6 440.801 162.104 440.608 155.673C439.59 149.326 438.459 146.007 432.325 141.834C429.056 139.131 426.938 138.479 422.728 138.601C417.378 138.814 414.519 139.328 409.999 141.834C405.971 142.84 404.716 144.822 402.221 147.996C401.357 150.087 401.511 151.259 402.221 153.35Z" fill="#A48362"/>
<path d="M431.012 159.615C429.812 159.505 429.188 159.538 428.082 159.615V169.313C429.738 170.744 430.642 171.049 432.123 168.504L433.032 162.847C433.234 160.726 433.414 159.974 431.012 159.615Z" fill="#EEBBA1"/>
<path d="M385.452 204.263C386.256 202.259 386.242 201.061 392.827 199.717L399.797 243.054L394.645 249.014C391.24 254.233 389.303 256.095 385.856 259.722L376.057 239.72L376.119 239.68C378.096 238.38 378.595 238.051 379.593 235.174L385.452 204.263Z" fill="#B07972"/>
<path d="M392.625 312.253C392.15 307.312 391.916 304.527 392.625 299.019C390.713 290.333 391.479 285.742 401.919 278.917L443.235 281.139L461.216 302.05C459.059 324.72 455.565 336.001 444.447 353.064C441.083 360.917 440.683 364.727 440.912 371.147C444.099 375.653 445.029 377.972 445.66 381.855H421.213H409.596L408.384 374.379C407.493 370.417 408.157 368.682 409.596 365.692C402.23 346.009 398.237 334.753 392.625 312.253Z" fill="#1F272A"/>
<path d="M411.818 195.071V184.666C404.705 190.117 400.577 193.267 395.15 197.597C392.314 198.98 392.459 200.357 392.826 202.85L395.15 246.389C391.605 261.693 389.828 269.753 386.765 283.867C387.134 290.811 388.822 293.774 392.22 298.817V294.574C394.502 290.691 396.225 289.226 400.403 288.311C420.549 286.966 431.767 287.24 451.417 292.554C456.408 296.711 458.555 299.086 460.61 303.464C458.756 307.631 459.091 307.959 464.55 301.444C461.872 275.834 460.549 261.349 459.095 234.873C461.599 235.409 463.06 234.533 465.863 229.114L459.095 191.03C453.607 187.53 450.115 185.809 442.124 183.757L434.648 178.908V181.737L438.689 192.344L429.193 202.85L427.476 211.638L411.818 195.071Z" fill="#B07972"/>
<path d="M448.185 192.243C443.589 186.102 440.607 183.265 434.749 179.009L434.648 181.737L438.689 192.445C434.893 196.453 432.803 198.745 429.092 202.85L429.395 203.153C434.247 199.789 436.396 197.481 439.396 192.748L446.164 200.425C446.134 196.94 446.28 195.041 448.185 192.243Z" fill="#D09084"/>
<path d="M407.777 205.779C415.297 209.56 419.726 209.792 427.476 211.638L413.838 195.779L414.04 185.98C410.33 183.597 407.91 185.141 403.838 190.93C402.487 195.247 402.603 197.778 403.232 202.345L407.777 201.638V205.779Z" fill="#D09084"/>
<path d="M466.974 197.192C464.297 193.5 462.502 192.022 458.589 190.828L456.67 192.04L448.386 224.467L458.589 274.37C465.636 270.598 468.939 266.727 474.045 257.702C472.201 234.068 473.39 220.809 466.974 197.192Z" fill="#B07972"/>
</svg>
