<svg width="640" height="413" viewBox="0 0 640 413" fill="none" xmlns="http://www.w3.org/2000/svg">
<path d="M205.392 78.0314C204.544 73.0514 204.166 70.1587 202.237 64.9571L229.287 60.4487C230.38 67.3851 230.413 71.2263 230.639 78.0314L224.778 84.3431L208.548 83.4414L205.392 78.0314Z" fill="#824C39"/>
<path d="M199.53 61.8025C198.78 58.8782 198.463 56.4771 198.178 54.1383C195.854 44.758 196.199 39.7262 196.374 30.6947L202.235 22.1288L225.679 21.678L229.736 32.4981C231.974 42.7 231.766 48.4439 229.736 58.6466C228.095 64.6868 225.662 67.3945 220.269 71.7209C217.05 74.6381 214.964 74.559 210.801 71.7209C203.973 68.5167 201.322 66.404 199.53 61.8025Z" fill="#945640"/>
<path d="M191.429 40.1583C192.456 37.4883 194.466 37.7883 197.279 41.0042L198.629 53.6815L193.229 50.3007C190.712 48.7649 190.434 47.304 190.529 44.3843L191.429 40.1583Z" fill="#945640"/>
<path d="M234.244 41.0577C233.11 39.2498 231.146 38.475 230.187 41.5086L230.637 51.4269C232.259 51.8951 233.403 51.2944 234.244 49.1728C235.126 46.1099 235.72 44.4025 234.244 41.0577Z" fill="#945640"/>
<path d="M199.98 33.3969C203.11 39.3041 211.697 33.6362 224.326 25.2818C227.005 27.7502 228.303 29.3074 229.736 32.946L231.088 41.0609L233.342 39.2578C233.896 34.3342 233.914 31.5549 232.441 26.6343C230.163 20.1938 227.259 17.5957 220.268 14.0109C213.547 12.6794 209.705 12.3174 202.235 14.9125C197.237 17.3141 195.298 19.4172 193.218 24.3801C190.858 30.1919 190.632 32.9984 193.218 38.8067L196.374 41.5119C198.194 37.9008 198.48 35.356 198.177 30.241L199.98 33.3969Z" fill="#1A1112"/>
<path d="M216.211 82.0848C212.169 81.7651 209.101 79.3879 205.391 77.5765L200.432 82.0848L208.547 195.696C235.941 202.83 251.329 204.944 278.878 202.008L233.794 71.7156L226.581 77.5765C222.177 81.3668 219.936 82.1613 216.211 82.0848Z" fill="#E8E7E5"/>
<path d="M231.09 86.1473L235.598 65.8597L238.303 59.9988C247.459 62.4609 252.592 61.4769 261.747 59.9988L273.919 99.6725L286.543 155.576C293.423 178.609 293.058 190.559 292.408 211.799L292.404 211.931C286.092 219.595 280.554 224.097 268.96 222.751C253.297 176.632 245.767 150.303 231.09 102.828C229.701 96.3177 229.758 92.6654 231.09 86.1473Z" fill="#2CA3D1"/>
<path d="M237.399 64.9548C234.532 69.9285 234.694 75.213 233.793 80.7341C230.207 78.7003 229.115 76.6071 229.735 70.3649L229.284 60.4465L230.637 52.7822C238.998 57.4186 242.421 60.8638 247.318 67.209C243.456 67.2059 241.292 67.2444 237.399 64.9548Z" fill="#48B2DB"/>
<path d="M216.211 157.83C207.426 128.289 203.739 111.409 204.489 79.3839V76.6789V76.228L201.333 77.1297L196.374 81.6381L195.022 92.0073L201.333 124.918C199.421 160.041 198.139 179.619 195.022 214.184C195.117 217.513 196.238 218.382 199.079 219.143C209.414 195.232 212.346 181.79 216.211 157.83Z" fill="#2CA3D1"/>
<path d="M196.375 70.8138C197.012 67.0575 197.533 65.0643 199.982 62.6987L202.236 65.4038C205.207 69.1959 206.27 71.3783 206.744 75.3222L204.49 80.2814C201.996 76.3299 200.504 74.1501 196.375 70.8138Z" fill="#48B2DB"/>
<path d="M213.055 233.572C210.706 218.926 211.056 210.532 213.055 196.603C227.89 200.964 236.047 201.111 251.376 202.915L254.532 225.457C257.499 254.39 259.034 270.657 259.04 300.296L264.45 340.42L266.704 362.511L269.409 374.233L265.352 377.569L264.45 378.29L261.294 375.585L242.359 376.487L238.302 343.125L229.285 313.821C229.643 309.297 230.104 306.821 234.244 303.001C228.009 276.285 221.834 260.779 213.055 233.572Z" fill="#2B4C6F"/>
<path d="M262.198 202.911H251.377L259.042 300.743L265.804 350.335C273.216 327.315 275.378 313.333 277.075 287.218L280.682 278.201C282.167 268.499 282.785 263.069 282.485 253.405L292.404 211.928C283.602 220.521 278.509 223.705 268.96 222.297L262.198 202.911Z" fill="#2B4C6F"/>
<path d="M245.215 373.779C247.794 373.358 248.801 373.387 250.174 373.779C254.4 370.377 256.769 371.96 260.994 373.779C267.632 378.368 270.907 381.798 275.421 390.46C270.845 393.283 268.286 395.778 260.994 400.378C254.759 404.937 250.776 406.422 242.961 407.592C239.567 401.602 237.449 398.228 241.157 391.813C239.816 384.707 241.301 380.764 245.215 373.779Z" fill="#E5E4E2"/>
<path d="M237.402 384.145C238.958 380.368 240.351 378.84 243.714 377.382C240.514 383.152 240.418 386.411 241.46 392.26L240.107 394.965C235.956 397.583 235.128 396.761 235.599 392.26L237.402 384.145Z" fill="#E0E0E0"/>
<path d="M383.923 191.642C382.95 178.974 382.6 171.846 382.57 159.182L392.038 191.642H383.923Z" fill="#72849E"/>
<path d="M374.006 59.0986C364.273 59.4807 358.872 59.839 350.111 62.7053C352.816 66.7629 354.269 68.9099 355.972 73.9763C363.415 69.6258 368.095 67.9876 375.809 65.4104L374.006 59.0986Z" fill="#B48266"/>
<path d="M308.633 182.171C308.644 176.64 308.923 173.699 313.141 170.449L320.805 172.253L345.601 174.958V212.828L332.978 277.298C331.652 286.568 330.641 291.683 325.314 299.84L320.805 308.406L313.592 366.564C306.373 364.751 302.327 364.889 295.107 366.564V330.046C294.932 320.04 295.562 314.108 296.911 303.446C300.476 293.967 301.783 290.087 303.222 284.962L305.026 212.828C305.405 206.297 306.35 202.652 308.633 196.147V182.171Z" fill="#31445C"/>
<path d="M341.544 75.3233C332.679 73.6954 323.577 72.4951 314.494 72.6163L288.796 96.0613L278.878 101.02V121.759V137.989L288.796 135.284L292.853 132.128L295.558 136.637L316.748 157.375L311.338 168.195C314.022 172.244 316.028 173.969 320.805 175.859C326.968 176.545 330.423 176.352 336.585 175.859L352.815 174.056C359.485 172.231 362.894 170.456 368.594 166.392L358.225 121.759L355.52 111.841L341.544 75.3233Z" fill="#E5E5E5"/>
<path d="M292.404 94.2564L282.937 74.8704L314.044 76.2229C316.034 78.0623 316.605 79.4842 317.599 81.9552L317.651 82.0838L314.946 96.0597C312.777 103.539 310.345 104.447 305.478 104.626C301.667 104.198 299.511 104.095 296.011 101.47L288.798 96.0597L292.404 94.2564Z" fill="#946A52"/>
<path d="M344.249 251.604V220.045L345.602 212.832L345.151 174.961L353.266 174.059L368.594 166.395L383.923 183.527C387.434 190.342 388.057 194.307 387.53 201.561L369.947 262.424L366.34 284.064C366.748 291.799 366.42 296.18 364.537 303.901L349.208 348.984C344.205 350.154 341.563 349.458 337.487 343.124L341.995 294.433C342.687 291.276 343.234 289.491 344.249 286.318V275.047C342.756 268.793 342.436 265.215 341.995 258.817C342.352 256.219 342.38 254.845 344.249 251.604Z" fill="#31445C"/>
<path d="M296.912 372.418V366.107C302.128 365.318 305.928 364.311 310.437 365.663L309.986 376.476L296.912 372.418Z" fill="#946A52"/>
<path d="M309.985 376.479C305.444 371.96 302.59 371.111 296.911 372.421L286.992 404.431C286.063 407.485 287.616 408.86 291.05 411.193C294.212 412.612 296.246 412.359 300.067 411.193C304.208 410.097 306.289 409.205 309.985 407.587C312.155 403.018 312.963 400.238 310.887 393.611L313.141 387.75C314.668 384.587 315.002 382.792 313.141 379.635L309.985 373.774V376.479Z" fill="#EAE9E5"/>
<path d="M336.133 347.177L337.486 343.57L344.248 347.177L348.757 348.98V351.685H344.248C340.659 351.108 338.729 350.557 336.133 347.177Z" fill="#946A52"/>
<path d="M332.077 353.937C332.242 350.742 333.151 348.988 336.134 347.174C341.097 350.983 343.799 351.232 348.758 351.683C350.356 354.294 350.517 356.08 350.561 358.445C350.533 365.037 350.577 368.732 348.758 375.126C351.358 376.332 351.701 377.42 352.815 379.184C352.501 382.841 351.64 384.548 348.758 387.299C344.09 389.548 341.292 389.25 336.134 387.299C331.217 384.431 329.722 382.317 330.273 377.38L332.077 367.462V353.937Z" fill="#EAE9E5"/>
<path d="M289.698 80.2832C286.68 79.1104 285.496 77.9283 283.838 75.324L276.624 63.6022V45.5687L289.698 35.1995L300.969 37.9045C309.045 42.7965 309.439 46.7347 310.437 53.6838L314.044 56.8397C316.585 59.814 315.972 63.1082 315.396 68.5614C314.817 74.3019 313.73 77.3096 311.339 82.5374C309.838 84.755 306.028 84.3255 297.363 82.5374C294.365 81.8869 292.686 81.4442 289.698 80.2832Z" fill="#B48266"/>
<path d="M278.878 44.6608L288.796 37.8982C290.347 37.2845 291.223 36.9877 292.854 36.9965C303.211 38.8043 305.247 41.5828 309.535 48.2706L309.985 41.0541C308.908 36.5738 307.183 34.6537 302.321 32.0373C299.156 31.2023 294.206 30.2371 294.206 30.2371C294.206 30.2371 290.168 29.112 287.444 29.3323C283.403 29.6589 281.26 30.8249 278.878 35.1932C276.236 34.4481 274.756 34.3627 272.115 35.1932C263.584 38.9273 262.012 45.1894 261.746 59.5384C261.398 71.0048 263.077 77.1446 267.156 87.9411C269.843 94.3391 270.343 97.5294 275.271 101.469C284.324 105.864 288.831 105.872 294.206 94.2529L288.796 85.2361L283.386 74.8669L278.878 71.2633L277.525 66.3041V65.8532L278.878 63.1451C277.431 56.0463 276.988 52.0257 278.878 44.6608Z" fill="#1A1112"/>
<path d="M274.089 62.9697C275.971 62.6124 277.509 62.5956 279.499 62.97L287.163 75.1424L283.556 75.5932C278.867 75.203 276.955 74.3649 275.441 71.0848L272.736 65.2239C272.313 63.5392 272.649 63.0789 274.089 62.9697Z" fill="#B48266"/>
<path d="M275.271 114.991C273.509 109.582 271.904 103.93 273.467 98.7605L285.189 97.408C284.89 102.014 284.959 105.542 281.583 109.581C284.228 111.295 284.895 112.508 285.189 114.991V120.851C287.946 122.829 288.901 124.141 289.247 127.163C290.246 133.671 290.254 137.17 287.443 142.492C289.713 144.838 290.82 146.191 291.05 148.803C293.817 148.621 295.297 149.318 297.813 151.959C301.732 151.287 303.069 149.655 305.026 146.098L308.633 148.803C305.804 153.863 303.573 155.764 297.813 156.468C295.251 156.851 293.809 156.978 291.05 153.312C286.751 151.952 284.663 149.738 281.583 144.295C280.26 140.428 279.957 138.239 281.583 134.377L277.976 130.319C276.164 127.326 276.42 125.648 277.976 122.655C275.276 120.462 274.405 118.948 275.271 114.991Z" fill="#1A1112"/>
<path d="M330.725 55.0403L315.847 59.5487L314.494 73.0738C314.555 73.2971 314.777 73.3934 315.396 73.5246L330.725 74.4263V72.6229C332.897 68.7556 332.528 66.7621 331.175 63.1554L329.372 59.5487C328.791 57.4605 330.154 57.6532 330.725 55.0403Z" fill="#2CA3D1"/>
<path d="M377.613 71.7134L372.654 54.5816L401.958 48.7207L403.311 67.205L408.721 87.4927L382.572 91.5502L377.613 71.7134Z" fill="#B7836B"/>
<path d="M387.532 79.8342C382.443 77.8914 380.778 76.1436 378.515 72.6208H369.949L378.966 145.206L393.393 197.503C391.82 198.633 391.323 199.604 390.688 201.56V209.675C400.716 211.692 406.345 209.912 416.385 206.52C428.497 211.895 435.549 209.816 447.944 209.675C460.096 207.925 466.165 205.838 474.994 199.306C478.228 196.071 479.584 194.068 480.855 189.839L456.51 139.796L433.066 78.0309L412.328 78.9326C400.272 80.2536 391.711 81.7331 387.532 79.8342Z" fill="#E6E0E0"/>
<path d="M399.704 77.1297L402.86 64.9571L414.131 55.0387C424.768 51.6408 430.672 51.6338 441.181 52.3337L450.198 58.6454L459.665 77.1297L454.706 83.4415L447.943 91.5565L454.706 106.885L456.96 139.345L468.231 151.518L470.936 156.477L478.149 164.141L486.715 180.371L478.149 190.29L465.526 200.659L447.943 151.518L399.704 77.1297Z" fill="#BECFE9"/>
<path d="M397.902 274.142C394.595 249.295 394.328 235.425 397.902 210.574C405.617 210.954 409.441 209.182 416.386 206.517L425.854 209.673C434.652 210.416 439.588 210.415 448.395 209.673C455.68 209.137 459.695 208.479 466.429 205.164L477.249 197.5L478.602 224.099C475.013 245.89 472.464 256.791 466.88 273.691L466.429 280.454L467.781 284.512L465.527 288.118L467.781 290.372L465.527 291.725L466.429 295.783C464.315 307.765 462.389 314.18 458.765 325.538V339.965L455.158 347.178L456.06 351.686L453.805 353.941V362.056L453.597 361.877C450.714 359.397 449.04 357.956 444.789 356.646C439.822 357.599 437.182 358.55 432.616 360.703L432.165 349.432L434.419 346.727L432.616 345.825C432.167 343.879 432.243 342.805 433.518 340.866L436.223 337.71H434.419V332.751C434.747 331.459 435.163 330.851 436.223 330.046L437.575 296.233L439.379 292.176L438.026 289.922L439.379 289.02L441.182 286.766H439.379C438.162 285.896 438.167 285.402 438.928 284.512H440.731L441.182 282.257H439.379C437.979 281.245 437.731 280.675 438.928 279.552L441.182 279.102V276.847L439.379 262.871L439.83 248.895C438.476 240.652 438.285 236.124 438.477 228.157C436.892 226.547 436.004 226.119 434.419 228.157L424.05 289.02C422.601 290.654 421.702 291.214 419.993 291.725L420.894 295.783C419.795 299.813 418.553 301.093 416.386 303.447C416.902 311.023 416.481 315.265 415.935 322.833L410.976 335.456V342.67C408.898 346.691 407.489 348.507 404.664 351.236L410.074 356.646L407.82 359.351C407.658 361.701 407.236 362.999 406.017 365.211C398.874 364.756 394.516 364.292 386.631 363.408L387.532 359.351L384.377 356.195L387.532 312.013C388.503 307.863 389.287 305.591 392.492 302.094V293.077C394.604 292.338 395.789 292.545 397.902 293.077C395.244 290.663 393.968 288.988 392.492 284.962C393.688 280.376 394.637 277.901 397.902 274.142Z" fill="#192A44"/>
<path d="M382.122 365.212L387.983 363.408L402.86 364.761L402.409 368.368L406.918 373.778C407.6 375.282 406.634 376.85 402.409 380.991V388.205C400.043 391.057 398.538 392.486 394.745 394.065C390.421 396.91 387.968 397.368 383.474 393.615C380.862 390.343 379.957 388.296 378.515 384.598C381.688 378.281 383.089 375.047 384.827 369.72H383.023L382.122 365.212Z" fill="#231F21"/>
<path d="M429.008 366.114C429.775 363.603 430.613 362.416 432.615 360.704C437.162 358.752 438.927 356.647 444.337 356.196C447.921 357.636 450.725 358.565 453.353 361.155L452.903 362.057L452.452 363.86L460.116 372.426C460.135 374.3 459.342 374.624 456.059 373.328V375.131L463.723 385.951C462.43 393.523 461.295 397.315 443.435 386.853C441.121 384.076 439.75 382.38 437.123 379.189C434.063 378.025 432.363 377.279 429.459 375.131L429.008 366.114Z" fill="#231F21"/>
<path d="M385.277 81.186L375.359 64.0542C361.283 68.6875 354.591 73.2665 345.604 85.2436L355.071 112.294L368.596 166.394L358.678 171.353L383.474 225.003L385.277 213.732C382.013 166.586 380.735 147.743 385.277 97.4162L379.417 90.2028L385.277 81.186Z" fill="#BECFE9"/>
<path d="M370.85 49.6271C368.681 42.0982 367.576 37.8698 366.341 30.2411L372.202 12.6584H396.998L401.957 20.7735C402.936 32.2349 402.964 38.6526 401.957 49.6271C399.714 55.646 397.993 58.6132 393.842 62.7014C389.441 65.3131 386.973 64.9815 382.571 62.7014C375.798 59.08 372.486 56.7273 370.85 49.6271Z" fill="#D4987C"/>
<path d="M370.85 24.3788C368.465 29.3379 367.962 32.2104 368.145 37.4531L362.284 36.5514C358.074 33.8031 356.088 31.8415 355.972 24.3788C358.301 13.1028 360.82 7.82654 370.85 3.18944C374.813 0.634633 377.161 0.257051 382.571 0.0335792C387.981 -0.189893 392.161 0.684318 397.449 3.18944C403.48 7.91786 406.156 11.093 407.818 18.9687C409.212 24.6783 408.568 27.9819 405.564 33.8464L403.761 32.9447L401.957 34.7481L399.252 25.2821C395.919 20.7567 395.728 17.4056 389.334 14.9112L386.629 17.1654C383.987 19.6537 382.185 18.8131 379.416 17.1654C375.007 19.0184 372.944 20.4055 370.85 24.3788Z" fill="#20181B"/>
<path d="M405.114 33.3973C403.703 32.2719 402.424 32.7964 401.958 34.301V45.5719L405.114 44.2174C408.721 41.5144 408.295 39.1315 406.467 35.2007C405.982 34.4397 405.678 34.0452 405.114 33.3973Z" fill="#D4987C"/>
<path d="M362.284 39.2268C361.847 36.7921 364.538 34.3019 366.342 34.7532L367.694 35.2045C368.55 35.5411 368.636 35.9449 369.047 36.5244L370.399 48.2436C368.251 49.2218 367.053 49.4947 364.989 46.4402L362.284 39.2268Z" fill="#D4987C"/>
<path d="M332.078 77.5802C330.088 75.1493 329.085 73.7802 329.373 71.2685C330.692 68.1969 331.538 66.4922 331.176 63.1534C328.927 61.9793 327.73 61.1034 328.02 58.6426C328.139 57.3459 328.758 56.6378 330.274 55.4892C336.352 53.4712 339.687 54.547 345.603 57.7433C351.283 63.5232 353.756 67.2134 356.423 74.8752C357.625 78.7634 358.027 80.8651 357.325 84.3427C356.587 85.9236 356.037 86.597 354.619 87.0478L351.464 87.9494C351.484 89.5807 351.484 90.3915 351.464 91.5561C350.496 93.8975 349.793 94.2222 348.308 93.3595L341.545 75.7768H337.488L335.684 82.9902C334.276 85.3636 333.486 88.1145 332.078 82.9902V77.5802Z" fill="#945640"/>
<path d="M411.876 48.7212C408.224 46.4601 405.693 46.5571 401.957 47.8212C401.702 55.221 402.457 59.3691 403.31 66.7546C404.068 70.8499 404.582 72.8454 405.564 76.2222C407.325 77.6835 407.903 76.8126 408.72 74.4189L407.818 66.7546L413.679 73.5172L410.974 82.5339C410.496 85.5253 411.226 85.4978 414.13 82.5339L417.737 76.2222C418.965 74.1134 419.281 72.9278 419.991 70.8122L422.245 69.4597C423.293 67.5904 423.538 66.1766 423.147 62.6971C419.617 56.386 417.112 53.3831 411.876 48.7212Z" fill="#B48267"/>
<path d="M311.79 148.812L307.733 151.066L304.577 154.222C303.869 155.499 303.749 156.222 304.577 157.378C307.385 161.36 309.504 162.442 313.593 163.69L319.905 157.378C319.6 154.205 318.815 152.887 316.749 151.066C315.272 149.34 314.528 148.209 311.79 148.812Z" fill="#B48266"/>
<path d="M459.666 77.1339L448.846 57.2971L453.805 55.9446C455.289 59.4087 455.106 61.6092 457.862 62.7071C464.567 64.2312 467.865 61.812 474.543 61.8055C475.769 61.7343 475.445 61.3546 476.797 62.7071L478.601 59.5513C480.166 62.7944 481.875 64.7351 484.913 66.3138C487.037 66.3502 488.159 66.2484 489.872 65.4122V81.6423L456.961 87.0524L455.608 82.0931L459.666 77.1339Z" fill="#D9BEB1"/>
<path d="M463.725 83.8953L456.061 81.6411L447.946 91.5595L454.708 106.888L456.962 139.799L468.233 151.521L470.938 156.48L478.152 164.144L483.562 173.612C494.418 175.862 500.563 173.549 511.514 170.005V97.4204L495.283 64.5093H491.226C489.241 64.4372 488.296 64.9767 486.718 66.3126C484.788 70.8625 483.754 73.408 480.857 78.0344C477.243 82.0341 473.158 83.134 463.725 83.8953Z" fill="#E6E0E0"/>
<path d="M567.867 72.6224C564.376 77.5949 562.658 81.2594 559.752 88.4017C561.857 94.3956 563.621 97.3551 569.671 100.574L571.925 96.9677C575.964 87.1203 577.844 81.4813 580.491 71.7208L587.253 66.7616L587.704 63.6057C587.487 62.4944 586.867 62.3131 585.45 62.2532L584.548 60.4498C584.372 58.9762 583.896 58.4178 582.294 57.7448H580.491V55.4906L576.433 51.4331C573.9 50.3053 572.608 50.4653 570.572 52.7856L566.966 59.0973C566.738 64.38 566.794 67.3577 567.867 72.6224Z" fill="#ECD2C5"/>
<path d="M486.716 180.373L483.109 173.61C492.569 175.112 497.815 174.944 507.003 171.807C504.357 187.825 504.289 196.804 504.749 212.833L518.274 208.776L530.898 286.771L532.701 294.886C534.935 308.97 536.012 316.867 532.701 330.953L529.996 362.962C527.102 363.05 525.42 363.021 522.332 362.962L520.529 361.61L511.512 360.708C509.01 331.82 507.71 315.605 508.356 285.869L505.651 284.516L507.003 281.361H505.2V275.951C498.913 262.431 495.799 252.721 490.773 232.67C487.392 215.611 486.991 205.885 486.716 188.488L484.011 183.529L486.716 180.373Z" fill="#110D0E"/>
<path d="M520.529 360.71C517.184 359.414 515.309 358.692 511.963 360.71H511.062L509.709 367.923C508.173 372.192 506.705 374.411 503.848 378.292L492.577 388.661C490.123 391.551 489.575 393.388 490.323 396.776C492.378 399.476 494.345 399.715 497.987 399.932C503.098 400.508 505.959 399.979 511.062 398.58L524.136 392.268C530.136 392.479 532.527 391.221 537.21 389.563C537.691 380.373 536.811 375.367 533.604 366.57L530.899 365.669L531.8 367.472C531.922 369.761 531.624 370.766 529.546 371.53C528.624 370.575 528.201 369.962 526.39 369.726L522.333 369.275V362.062L520.529 360.71Z" fill="#E5E4E2"/>
<path d="M531.801 367.92L529.096 362.961H522.333V369.273C524.432 369.297 525.614 369.425 527.743 370.175L529.546 371.527C531.997 370.402 532.056 369.529 531.801 367.92Z" fill="#DBB9B0"/>
<path d="M605.736 343.578L598.523 335.012L611.146 321.036L621.516 329.602L605.736 343.578Z" fill="#DBB9B0"/>
<path d="M515.571 271.44V202.012L524.136 197.954L522.784 188.036L534.957 186.683C537.314 183.3 536.165 170.549 539.916 168.199L549.834 181.724C552.004 183.694 551.929 183.811 554.343 183.978L559.302 186.683C560.849 216.368 556.369 234.106 548.932 263.325C547.903 265.597 547.934 266.777 548.932 268.735C558.834 270.933 563.582 274.086 571.925 280.006L612.501 320.582C608.951 329.611 605.622 332.691 597.623 335.009L591.311 328.246L527.292 284.966C518.987 283.598 517.143 279.883 515.571 271.44Z" fill="#110D0E"/>
<path d="M607.54 335.917C605.075 336.687 603.789 337.246 602.13 339.073L599.876 337.27C598.012 337.631 597.5 338.086 598.523 339.975L602.13 344.934L605.736 353.951V366.123C604.894 372.751 602.756 376.984 608.892 381.452L614.753 383.706C629.768 375.042 631.419 368.23 633.237 355.754L640 328.253C639.369 325.678 638.916 324.3 635.942 323.294L622.868 321.491C619.682 320.879 617.902 321.031 614.753 323.294L619.712 328.253C620.886 330.355 619.217 332.414 611.146 338.171C609.932 336.089 609.065 336.072 607.54 335.917Z" fill="#E5E4E2"/>
<path d="M462.37 63.6024C457.328 63.0684 454.923 62.2632 452.902 58.1923L440.73 42.413L449.746 24.3795L465.075 18.9695C468.177 19.591 469.295 20.8267 471.481 23.4176L475.895 32.4946C480.568 36.5042 481.621 39.249 481.756 44.6672L478.6 60.8974C477.901 63.2587 477.086 64.1718 474.542 64.5041L462.37 63.6024Z" fill="#ECD2C5"/>
<path d="M465.978 21.6737C459.67 22.199 456.395 22.6023 450.649 25.2804C447.992 30.2245 446.867 32.9833 446.141 37.9038V48.2731L441.182 50.5273C437.906 48.9919 436.765 47.4418 436.223 43.3139C435.362 38.0354 435.065 35.0694 436.223 29.7888C439.779 17.5216 444.468 15.3949 454.707 14.9111C458.287 14.9466 460.356 15.564 464.174 18.067C471.808 21.5829 469.665 21.6188 465.978 21.6737Z" fill="#211819"/>
<circle cx="433.968" cy="19.4229" r="10.8201" fill="#211819"/>
<path d="M495.281 68.1097V64.503C502.652 62.7919 506.799 63.3272 514.216 66.3063C525.289 74.6651 529.399 81.3851 537.209 92.9057C538.213 94.2886 538.07 95.1983 535.856 97.4141C539.625 102.375 541.802 103.912 545.774 104.627L552.537 96.0616L560.652 85.6923L559.75 88.8482C562.343 94.8932 563.905 98.1461 569.669 100.119L571.923 96.5124C574.486 100.511 575.269 102.846 573.726 107.333L568.316 110.488V112.743C562.871 119.337 559.678 122.914 552.988 128.522C548.152 130.753 545.319 130.966 539.914 128.522L535.856 123.563L537.209 140.244L563.357 188.483C562.534 191.113 561.823 191.899 559.3 192.993L558.849 188.034L554.34 186.68C552.368 186.666 551.214 186.426 548.93 184.877L543.52 179.467C542.112 178.161 541.322 178.114 539.914 179.467L535.405 187.132L531.799 204.713L515.118 209.222L504.748 212.828C504.852 187.32 500.514 181.799 502.854 156.867C503.393 151.122 505.146 142.088 504.748 137.539C504.52 123.476 504.482 115.659 504.748 101.922C499.081 89.0134 497.989 81.4612 495.281 68.1097Z" fill="#65668C"/>
<path d="M441.181 50.5279C444.03 48.7654 444.543 48.8263 446.14 48.2737L452.903 57.7413C450.539 58.0692 448.589 58.0607 445.689 57.7413C443.415 57.4521 442.229 56.7953 440.279 54.1346C439.311 52.5008 439.235 51.664 441.181 50.5279Z" fill="#ECD2C5"/>
<path d="M21.9014 261.508C23.2539 259.256 29.6791 255.736 29.5656 258.354C30.4002 264.108 37.2153 266.301 30.9181 273.229L21.9014 282.246L13.7863 273.229L21.9014 261.508Z" fill="#B89F8B"/>
<path d="M23.7044 260.159C24.9369 259.313 25.6278 259.381 26.8603 260.159L33.172 255.2L31.3687 252.945C28.725 250.745 27.2447 251.174 24.6061 253.396L15.5894 263.315C9.44788 269.898 6.39023 273.945 2.06425 282.25C-0.32253 288.334 -0.661788 291.446 1.16258 297.128C1.10269 301.062 3.88919 302.068 9.72849 301.185C11.2859 300.448 12.0911 300.852 14.2369 298.48L24.6061 283.151L30.5684 273.549C27.9021 276.048 26.2333 277.861 23.2536 279.545C20.0919 279.192 18.7872 278.475 18.2944 275.036V268.274C19.8844 264.834 21.1704 263.118 23.7044 260.159Z" fill="#110F10"/>
<path d="M163.915 87.939L158.505 78.4714L184.654 81.1765L189.162 106.423L172.932 113.637L155.8 100.112L159.857 92.4474C161.7 90.7366 162.51 89.7341 163.915 87.939Z" fill="#B89F8B"/>
<path d="M171.578 109.128C167.129 109.195 164.967 108.563 163.012 103.718L161.209 96.955C160.432 94.4738 161.049 92.2168 162.11 89.7416L144.528 85.6841L102.6 155.564C111.321 170.966 117.795 176.81 131.454 183.516C137.891 185.562 141.441 186.233 147.684 186.672L190.513 107.324L188.71 103.718L171.578 109.128Z" fill="#E8E7E5"/>
<path d="M152.193 73.5133L154.898 65.849V71.2591L163.915 87.9401L162.562 89.7434L158.054 91.0959C154.227 92.778 152.289 92.9967 150.389 87.9401C150.36 80.3561 149.635 77.2335 146.332 74.8658C149.043 76.2054 150.31 75.8666 152.193 73.5133Z" fill="#38231D"/>
<path d="M82.7636 89.2943C94.1421 104.924 103.327 111.358 116.126 116.345L117.027 113.64L135.962 75.3183C133.903 74.7344 129.595 75.0127 122.888 75.3183C113.722 76.2887 108.729 76.4708 100.346 75.3183L93.1329 70.3591L82.7636 89.2943Z" fill="#ABB0C4"/>
<path d="M73.296 46.9125C73.9776 58.2444 75.081 64.883 76.9027 76.6677L79.6078 82.9795L89.0754 76.6677V68.5527C88.062 58.304 87.0338 52.4939 83.2145 41.9533L89.0754 36.0924C91.618 32.6496 91.9394 30.5823 89.0754 26.6248L102.15 13.0997C102.15 13.0997 103.051 10.3943 99.8954 12.198C96.7396 14.0018 89.0754 18.0589 89.0754 18.0589V4.5338C89.259 3.526 86.926 0.237294 85.4687 4.5338C84.0113 8.83031 83.2145 21.6656 83.2145 21.6656H78.2553C74.954 24.3324 73.6402 26.6522 72.3944 32.9366L73.296 46.9125Z" fill="#D6BAA2"/>
<path d="M102.601 197.941L120.635 177.653L102.601 156.013L77.3542 167.735C73.7572 168.351 71.3076 170.306 70.1408 175.85C66.1585 201.721 65.4111 216.233 64.2799 242.123C58.0785 242.777 54.3556 244.022 47.599 246.631C38.8479 251.099 33.9887 252.322 25.5079 259.706C25.1207 266.697 24.8579 272.445 34.0738 273.682C38.743 271.201 41.7998 269.947 47.599 267.821C58.7269 267.149 65.5577 266.277 77.805 264.665C82.5615 262.917 84.9928 261.336 87.7235 254.296C90.1861 246.525 90.9429 241.697 91.781 232.656L102.601 204.253C103.173 201.821 103.148 200.395 102.601 197.941Z" fill="#31445C"/>
<path d="M108.461 239.868L102.6 196.137L119.732 176.751L140.921 186.218L147.684 191.178L140.921 221.834C136.817 241.616 134.417 252.713 132.355 272.328V285.853L134.159 292.165C134.533 315.379 132.564 328.619 130.101 352.126C123.234 356.307 119.385 357.259 112.518 352.126V334.093L110.715 314.256C109.835 305.65 110.266 301.745 112.518 292.165C110.11 287.982 109.242 284.933 108.461 278.189V239.868Z" fill="#31445C"/>
<path d="M113.873 370.612V353.03C118.628 356.513 122.439 356.186 127.398 353.481L126.045 370.612H113.873Z" fill="#B89F8B"/>
<path d="M119.282 365.202L114.323 368.809C113.729 367.586 113.942 366.392 113.872 364.751L112.069 368.809L111.167 384.138C112.095 385.947 113.096 385.854 114.774 385.941L118.38 386.392L119.282 389.548C121.129 392.019 122.532 392.876 125.594 393.605C132.391 395.141 135.928 394.561 141.824 391.351C142.51 388.074 142.515 386.184 140.922 382.785L135.061 376.473C132.065 372.606 130.762 370.058 128.75 365.202C125.052 363.329 122.979 362.231 119.282 365.202Z" fill="#110F10"/>
<path d="M157.603 50.0658C159.696 44.7954 162.293 43.7954 167.522 42.8524L173.834 41.9507L187.359 52.7708L185.105 81.1735L174.735 84.3294C170.51 85.4381 168.14 85.4741 163.915 84.3294C160.225 81.4966 158.534 79.6336 156.702 75.3126C154.696 71.2787 153.935 69.0226 155.349 64.9434L157.603 50.0658Z" fill="#D6BAA2"/>
<path d="M185.556 82.0735C183.395 66.5208 182.487 57.7563 168.875 44.2031C168.14 43.1954 167.738 42.9773 167.072 44.2031C163.557 49.4077 161.987 50.2836 157.153 53.6707C155.526 49.9698 155.291 49.1824 157.604 45.1048C159.665 42.3287 160.984 41.075 164.367 40.5964H174.736L186.909 47.359L192.769 75.3109L185.556 82.0735Z" fill="#38231D"/>
<path d="M84.1169 77.1109C88.7679 71.8046 88.3232 68.5542 88.6253 62.6841L94.0353 70.3483C96.5258 75.3892 97.5254 78.1865 95.3878 82.9718C91.0884 87.8081 88.4957 89.7931 83.2152 90.636C78.4116 89.0782 76.3303 86.1942 72.8459 80.2667C72.7376 75.3298 72.7918 73.5806 76.0019 72.1517L76.9035 77.1109C79.2764 79.1684 80.7409 79.7061 84.1169 77.1109Z" fill="#C3C9DF"/>
<path d="M176.087 123.552L190.063 107.322L195.924 118.142L197.276 123.552L195.473 133.019L150.389 198.391C151.469 207.489 151.787 212.721 151.742 221.834C142.817 224.033 137.786 224.712 128.749 224.539L125.593 207.858L145.43 178.103C154.311 155.636 159.121 142.987 176.087 123.552Z" fill="#ABB0C4"/>
<path d="M175.637 38.3404C168.808 38.272 164.68 38.714 163.014 41.0455C173.197 44.6261 177.221 48.2877 184.654 54.5706L184.203 82.0715C185.152 99.7066 188.846 106.629 195.925 118.589C197.768 126.361 198.281 124.095 199.081 118.589L200.884 79.3666L197.277 67.194C196.377 62.7464 195.694 60.2296 194.121 55.4723C192.139 51.3088 190.798 49.1996 188.26 45.5538C184.226 41.0701 181.498 38.7901 175.637 38.3404Z" fill="#38231D"/>
<path d="M148.135 93.3484L150.679 88.3649L149.939 81.1758C149.379 77.4454 148.551 75.6323 144.529 73.9624C140.725 72.7724 138.724 72.9191 135.512 75.3149L114.322 113.636C114.919 118.727 114.545 121.699 112.97 127.161C107.852 130.162 105.017 131.696 100.346 132.571C96.6305 136.39 94.5658 138.532 92.2314 143.391L71.042 159.171L74.1979 164.13C71.361 180.073 75.9944 184.433 83.2146 192.983C89.3154 187.19 92.3622 184.07 97.6414 178.557C100.462 171.983 102.044 168.28 104.855 159.171V154.211H108.011C113.011 151.458 115.299 149.264 117.929 143.391L148.135 93.3484Z" fill="#ABB0C4"/>
<path d="M201.333 125.358L199.079 112.284L195.472 123.104L193.218 131.67L150.389 190.73L165.266 201.55L198.628 168.188L201.333 125.358Z" fill="#ABB0C4"/>
<path d="M124.693 208.311C135.535 200.643 140.751 196.518 152.194 191.63L160.309 197.942C149.56 207.358 142.514 210.647 130.103 215.524L127.398 222.287L117.931 241.222C115.204 244.507 114.387 244.78 115.226 240.32L118.832 229.049L108.463 239.869C104.923 240.737 104.381 240.182 107.111 236.263L113.422 227.246L105.758 233.558C103.383 234.503 102.801 234.192 103.955 231.304L111.796 221.812L104.405 228.148C101.629 227.747 100.813 227.191 103.053 224.541L108.914 220.033C107.444 220.506 108.431 220.298 107.111 220.033C106.188 219.942 102.875 220.317 105.167 217.393C107.819 214.742 110.678 212.811 114.324 211.034C118.197 210.228 118.566 209.907 122.439 210.565L124.693 208.311Z" fill="#D6BAA2"/>
</svg>
