<svg width="184" height="202" viewBox="0 0 184 202" fill="none" xmlns="http://www.w3.org/2000/svg">
<path d="M132.284 63.4069C132.284 89.0077 138.378 94.9759 124.942 94.9759C111.505 94.9759 87.9981 72.6316 87.9981 47.0308C87.9981 21.43 61.212 -2.84249 97.4765 0.754018C126.01 10.2652 132.284 37.8061 132.284 63.4069Z" fill="#0C1A30"/>
<path d="M56.645 62.1064C56.645 86.801 51.5796 92.558 65.0349 92.558C78.4901 92.558 89.3978 72.5391 89.3978 47.8446C89.3978 23.15 114.566 -0.723764 78.25 2.74543C51.9514 13.2883 56.645 37.4119 56.645 62.1064Z" fill="#0C1A30"/>
<path d="M102.856 65.4309C100.761 61.7833 100.033 59.609 102.856 54.5137H75.5625V81.8067H84.3803H93.198C98.6189 78.8263 100.854 75.4349 102.856 65.4309Z" fill="#CE7C4F"/>
<path d="M112.923 10.8873C103.456 5.11183 97.4752 3.14833 84.2506 4.44511C75.9461 9.61207 69.3515 12.105 70.1223 22.5638C69.0296 35.9692 68.1384 43.6941 70.1223 54.7748L70.1917 54.842C71.3258 55.9411 73.5986 58.1437 74.2777 58.3985C76.7052 59.3093 82.9051 63.1295 84.2506 64.4381C93.3621 62.5944 96.9652 59.7958 103.365 54.7748L114.169 41.8904L116.247 37.864C119.447 28.12 117.113 21.9554 112.984 11.0492L112.923 10.8873Z" fill="#E09C77"/>
<path d="M112.365 40.0406C109.139 39.0932 107.823 38.8555 106.576 41.2812C103.775 45.7733 102.856 53.2736 104.095 53.2736C105.334 53.2735 106.564 53.3441 109.057 51.6195C111.539 49.1383 112.627 47.3759 112.779 42.1082C113.063 41.0371 113.851 40.9145 112.365 40.0406Z" fill="#E09C77"/>
<path d="M67.8834 36.2389C68.6647 35.1879 69.1437 35.2949 70.0416 36.2389C71.7703 42.2866 72.0042 50.9956 70.0416 51.1936C68.0789 51.3917 68.3987 48.8229 67.8834 47.3481C67.3681 45.8733 64.9665 40.8743 67.8834 36.2389Z" fill="#E09C77"/>
<path d="M134.283 75.6299C123.242 67.3341 115.515 66.6987 101.614 63.1972C84.0275 88.5202 83.2408 84.362 68.2295 59.4756L58.7933 68.6443C58.7933 68.6443 55.3606 81.3058 55.3606 94.8405C55.3606 108.375 50.2115 114.051 51.9292 128.022C51.7794 133.979 49.3531 140.132 51.9283 141.12L61.3668 161.204H129.565L134.283 75.6299Z" fill="#BE65E6"/>
<path d="M30.4871 99.1747C27.7899 104.135 27.1355 106.939 28.0059 111.994L45.7878 123.16C47.7459 124.315 52.6703 124.09 54.8855 123.16C55.953 120.062 55.6524 117.805 54.8855 113.648L66.4644 77.6711L56.9531 70.2275C54.4658 70.8591 53.3069 71.7182 51.9908 74.7764C50.9325 73.9249 50.4085 74.0917 49.5096 74.7764C46.1357 79.3125 40.2481 81.0185 40.4123 85.5282L36.6901 96.6935C33.1577 96.571 31.4872 96.8013 30.4871 99.1747Z" fill="#BE65E6"/>
<path d="M21.387 123.987C33.8197 128.873 40.7773 131.646 51.9883 139.701L60.2589 149.733L85.0708 166.167C79.9014 180.163 79.0658 182.156 78.0407 184.362C52.8025 178.43 39.0233 177.384 11.0487 154.588C6.69346 152.315 0.296875 150.039 0.296875 141.768C1.85127 134.436 3.09422 130.468 8.98103 124.814C12.8213 122.62 17.1211 123.433 21.387 123.987Z" fill="#016099"/>
<path d="M146.687 181.88L167.364 161.617L137.176 163.685L146.687 181.88Z" fill="#021C47"/>
<path d="M94.5809 170.577L84.4356 166.166L81.3479 176.091L94.5809 170.577Z" fill="#11336A"/>
<path d="M146.683 176.917L142.134 170.301L96.2333 190.977V193.872C92.6933 198.788 111.785 195.832 142.134 198.834C145.399 199.017 146.806 197.654 149.165 194.699C149.901 187.825 150.151 183.964 146.683 176.917Z" fill="#11336A"/>
<path d="M128.078 152.52L75.5595 157.068H70.1836L96.2361 176.918L128.078 152.52Z" fill="#021C47"/>
<path d="M79.6988 79.3246L81.7665 73.5352V64.4375H75.5635V66.5052L73.0823 77.6705C72.8312 79.7939 73.572 79.9168 75.5635 79.3246L78.0447 75.6028V79.3246C78.2126 79.9357 78.6072 79.8957 79.6988 79.3246Z" fill="#CB8E6C"/>
<path d="M141.728 142.595C144.968 116.498 144.187 101.703 134.284 74.7761C118.96 70.9898 114.87 74.4803 116.502 91.7309L119.397 96.6932V133.911C117.352 138.232 114.939 139.781 110.713 142.595L79.2844 148.798H75.1491C73.4134 143.901 72.136 141.108 68.9461 135.979L61.5025 133.911H57.3672C55.4236 133.066 54.3485 133.14 52.4049 133.911C51.0642 135.527 50.8774 136.43 52.4049 138.046C50.6228 139.725 51.38 140.763 52.4049 142.595H55.7131C61.153 152.636 65.3599 156.495 75.1491 159.55L125.186 154.588C133.068 154.143 136.336 150.454 141.728 142.595Z" fill="#E09C77"/>
<path d="M134.693 75.1895C132.204 71.4374 127.392 70.5346 121.046 72.2946C117.191 75.4993 115.657 77.7456 115.257 83.4599L118.152 134.324C117.558 137.33 112.629 140.279 111.535 141.768L113.189 146.317L115.257 155.414H128.49C134.959 152.527 138.857 149.013 142.964 141.768C148.358 112.407 148.552 95.5538 134.693 75.1895Z" fill="#BE65E6"/>
<path d="M73.4924 51.6189C71.8171 51.2379 71.1486 52.4326 70.5977 53.6864L83.8307 64.0248C84.1831 64.1988 84.3547 64.0185 84.6577 63.6113L83.8307 61.9572C80.0569 57.9088 77.857 55.6416 73.4924 51.6189Z" fill="#DC8453"/>
<path d="M82.9997 63.1985L73.4885 53.6872C71.0926 53.1317 70.0763 53.6723 68.5261 55.3414L52.8119 75.1909L23.0377 118.612C21.8957 123.323 21.9038 125.698 24.2783 128.95L33.376 134.326C41.4967 133.487 44.1658 128.996 47.436 117.785L64.3908 75.1909C65.0354 75.6111 65.3976 75.462 66.0449 75.1909C70.987 72.3467 72.9474 69.6276 76.7968 65.2661H80.105L80.9321 68.9879L78.0374 75.1909C77.8806 76.9599 78.2207 77.1584 80.105 75.1909L84.6539 68.1608C84.2971 65.4929 84.2682 63.5611 82.9997 63.1985Z" fill="#E09C77"/>
<path d="M98.7219 9.82649C98.7219 16.5182 91.5013 24.2879 82.5942 24.2879C73.6871 24.2879 68.5342 44.2212 63.9853 34.4499C63.9853 27.7582 54.0621 14.6197 75.5654 1.9954C87.9714 -0.740273 98.7219 3.13482 98.7219 9.82649Z" fill="#0C1A30"/>
<path d="M75.5602 9.40039C75.5602 15.9544 78.6501 29.5861 88.9788 29.5861C99.3075 29.5861 107.864 53.2727 113.62 46.7649C124.649 41.0227 118.469 9.82216 106.916 4.75884C92.8861 -3.6803 75.5602 2.84635 75.5602 9.40039Z" fill="#0C1A30"/>
<path d="M104.09 188.497L97.8871 166.993C97.8871 166.993 90.8571 170.715 83.827 173.196C76.7969 175.677 71.4191 177.044 71.8346 177.745C67.6777 176.432 65.4131 176.129 61.4963 176.091C50.8615 175.68 45.9551 174.438 37.925 171.542C30.8734 171.35 27.765 172.394 26.3462 179.813C24.4286 186.957 25.4217 190.201 28.4138 195.527C32.9761 201.007 36.0927 201.651 42.0603 200.903L87.1352 198.008C94.4991 196.156 98.0129 193.572 104.09 188.497Z" fill="#11336A"/>
<path d="M183.079 138.46C182.057 131.648 179.326 129.312 171.913 126.881C163.517 125.471 159.499 126.097 154.131 131.017C136.869 146.4 126.588 154.016 106.162 164.099H103.267C100.48 164.002 89.9038 168.375 89.2071 171.129C89.7093 181.185 90.8396 186.415 96.6507 193.873C141.888 176.171 175.019 162.746 180.597 150.039C182.063 147.077 182.71 144.881 183.079 138.46Z" fill="#016099"/>
<path d="M118.981 114.889C119.808 132.257 123.147 129.362 120.635 129.362C118.123 129.362 116.086 122.882 116.086 114.889C116.086 106.895 118.123 100.415 120.635 100.415C123.147 100.415 118.154 97.5206 118.981 114.889Z" fill="#A657CA"/>
<path d="M80.3987 24.4985C80.6102 26.543 81.0998 27.9923 80.8727 28.0158C80.6455 28.0393 80.2898 26.4009 80.0783 24.3563C79.8668 22.3117 79.8795 20.6352 80.1066 20.6117C80.3338 20.5882 80.1872 22.4539 80.3987 24.4985Z" fill="#0C1A30"/>
</svg>
